<svg width="11" height="10" viewBox="0 0 11 10" fill="none" xmlns="http://www.w3.org/2000/svg">
<g clip-path="url(#clip0)">
<path d="M10.2203 2.35082C10.1331 2.28443 9.99133 2.28443 9.90412 2.35082L5.14263 5.9761L0.381593 2.35082C0.294386 2.28443 0.152612 2.28443 0.0654051 2.35082C-0.0218017 2.41722 -0.0218017 2.52516 0.0654051 2.59156L4.98477 6.33703C5.02815 6.37041 5.0854 6.38709 5.14265 6.38709C5.1999 6.38709 5.25713 6.37041 5.30096 6.33737L10.2203 2.5919C10.3075 2.52516 10.3075 2.41757 10.2203 2.35082Z" fill="white"/>
</g>
<g clip-path="url(#clip1)">
<path d="M10.2203 4.09081C10.1331 4.02442 9.99133 4.02442 9.90412 4.09081L5.14263 7.71609L0.381593 4.09081C0.294386 4.02442 0.152612 4.02442 0.0654051 4.09081C-0.0218017 4.15721 -0.0218017 4.26515 0.0654051 4.33155L4.98477 8.07702C5.02815 8.1104 5.0854 8.12708 5.14265 8.12708C5.1999 8.12708 5.25713 8.1104 5.30096 8.07736L10.2203 4.33189C10.3075 4.26515 10.3075 4.15756 10.2203 4.09081Z" fill="white"/>
</g>
<defs>
<clipPath id="clip0">
<rect width="10.2857" height="7.83127" fill="white" transform="translate(0 0.428955)"/>
</clipPath>
<clipPath id="clip1">
<rect width="10.2857" height="7.83127" fill="white" transform="translate(0 2.16895)"/>
</clipPath>
</defs>
</svg>
