<svg width="35" height="40" viewBox="0 0 35 40" fill="none" xmlns="http://www.w3.org/2000/svg">
<path d="M33.4091 37.5058C32.4545 37.5058 31.8182 37.5058 31.5 37.2564C31.8182 36.5082 32.1364 35.7599 32.1364 35.0117C32.1364 32.2681 29.2727 30.0234 25.7727 30.0234C25.4545 30.0234 24.8182 30.0234 24.5 30.0234L19.0909 21.2938L28.6364 1.59002C28.9545 1.09119 28.3182 0.342946 27.6818 0.0935307C27.0455 -0.155885 26.0909 0.0935311 25.4545 0.841777L15.9091 16.5549L6.36364 0.841777C5.72727 0.0935311 4.77273 -0.155885 4.13636 0.0935307C3.5 0.342946 2.86364 1.09119 3.18182 1.83944L13.0455 21.2938L7.63636 30.0234C7.31818 30.0234 6.68182 30.0234 6.36364 30.0234C2.86364 30.0234 0 32.2681 0 35.0117C0 37.7553 2.86364 40 6.36364 40C9.86364 40 12.7273 37.7553 12.7273 35.0117C12.7273 33.7646 12.0909 32.5175 10.8182 31.5199L15.2727 25.0351H15.9091H16.5455L21 31.5199C19.7273 32.2681 19.0909 33.5152 19.0909 35.0117C19.0909 37.7553 21.9545 40 25.4545 40C26.7273 40 28 39.7506 28.9545 39.2518C30.2273 39.7506 31.8182 40 33.4091 40C34.3636 40 35 39.5012 35 38.7529C35 38.0047 34.3636 37.5058 33.4091 37.5058ZM6.36364 37.5058C4.45455 37.5058 3.18182 36.5082 3.18182 35.0117C3.18182 33.5152 4.45455 32.5175 6.36364 32.5175C8.27273 32.5175 9.54545 33.5152 9.54545 35.0117C9.54545 36.5082 8.27273 37.5058 6.36364 37.5058ZM25.4545 37.5058C23.5455 37.5058 22.2727 36.5082 22.2727 35.0117C22.2727 33.5152 23.5455 32.5175 25.4545 32.5175C27.3636 32.5175 28.6364 33.5152 28.6364 35.0117C28.6364 36.5082 27.3636 37.5058 25.4545 37.5058Z" fill="white"/>
</svg>
