<svg width="215" height="32" viewBox="0 0 215 32" fill="none" xmlns="http://www.w3.org/2000/svg">
<path d="M76.6787 6.90395C76.8518 8.64256 76.8744 10.9211 76.7467 13.7396C78.2676 13.7666 79.5619 13.7733 80.6295 13.7598C80.9304 13.7598 81.1941 13.826 81.4209 13.9583C81.6434 14.0932 81.7547 14.2579 81.7547 14.4523C81.7547 14.6494 81.6537 14.8222 81.4518 14.9706C81.2457 15.1164 80.9942 15.1893 80.6975 15.1893C79.6258 15.219 78.2862 15.2123 76.6787 15.1691V15.5902C76.4891 19.3185 76.522 22.1653 76.7776 24.1307C76.7982 24.3251 76.7137 24.4992 76.5241 24.6531C76.3304 24.8097 76.083 24.8947 75.7822 24.9082C75.4813 24.9217 75.2133 24.865 74.9784 24.7382C74.7434 24.6113 74.6157 24.4506 74.5951 24.2563C74.3395 22.2234 74.2962 19.3212 74.4652 15.5497L74.4961 15.1286C72.4228 15.0719 70.7741 15.057 69.5499 15.084C68.9522 15.0975 67.9795 15.161 66.6316 15.2744C65.2838 15.3878 64.2348 15.4445 63.4846 15.4445C63.1837 15.4445 62.7447 15.4094 62.1677 15.3392C62.2748 16.0519 62.3593 16.6958 62.4212 17.2708C62.5531 18.5343 62.4583 19.9583 62.1368 21.5431C62.1161 21.6133 62.11 21.6659 62.1182 21.701C62.1306 21.7361 62.1409 21.8063 62.1491 21.9116C62.1615 22.0169 62.1677 22.1316 62.1677 22.2558C62.1677 22.4961 62.1141 22.6931 62.0069 22.847C61.8585 23.0846 61.6009 23.2385 61.2341 23.3087C60.892 23.3924 60.5498 23.3708 60.2077 23.2439C59.9728 23.1467 59.7811 22.9996 59.6327 22.8025C59.5462 22.6918 59.4699 22.5663 59.404 22.4259C59.2968 22.1721 59.1896 21.8427 59.0825 21.4378C58.8475 20.609 58.6991 19.6978 58.6373 18.7043C58.5507 17.5678 58.592 16.635 58.761 15.9061C58.8681 15.4418 59.0186 15.0624 59.2123 14.7682C59.3854 14.5441 59.5894 14.3551 59.8244 14.2012L59.5956 12.9175C59.3195 11.0682 59.1711 9.54696 59.1505 8.35369C59.1505 8.15931 59.2576 7.99193 59.472 7.85155C59.6863 7.71116 59.9419 7.64097 60.2386 7.64097C60.5395 7.64097 60.7972 7.71116 61.0115 7.85155C61.2258 7.99193 61.333 8.15931 61.333 8.35369C61.3536 9.43357 61.5041 10.9063 61.7843 12.7717L61.9451 13.8449C62.0729 13.8584 62.2109 13.8786 62.3593 13.9056C62.9817 13.9758 63.3568 14.0109 63.4846 14.0109C64.1482 14.0109 65.1107 13.9556 66.372 13.8449C67.7858 13.7315 68.8245 13.668 69.4881 13.6545C70.7535 13.6275 72.4455 13.6411 74.5641 13.695C74.6919 10.9495 74.6693 8.7141 74.4961 6.98899C74.4755 6.79191 74.5662 6.61913 74.7682 6.47065C74.9743 6.32487 75.2278 6.24523 75.5287 6.23173C75.8254 6.21553 76.0872 6.27492 76.3139 6.4099C76.5365 6.54219 76.658 6.70687 76.6787 6.90395ZM93.2856 17.4814C94.1842 17.341 95.5753 17.2573 97.459 17.2303C97.2859 17.0332 96.985 16.5918 96.5563 15.9061C96.2801 15.458 96.0246 15.1137 95.7896 14.8735L94.6335 16.0316L93.2856 17.4814ZM85.6746 22.6162C86.5526 21.9845 87.3708 21.2717 88.1292 20.478C88.8876 19.687 89.6955 18.7732 90.5528 17.7365C91.4102 16.7268 92.15 15.9061 92.7724 15.2744C93.7534 14.2782 94.4171 13.6545 94.7633 13.4035C94.8705 13.3198 94.9776 13.2563 95.0848 13.2131C95.3197 13.0863 95.5856 13.0296 95.8824 13.0431C96.2039 13.0593 96.4718 13.1511 96.6861 13.3184C97.3704 13.7396 98.0031 14.4159 98.5843 15.3473C99.1613 16.2814 99.6106 16.8807 99.9321 17.1453C100.55 17.6636 101.321 18.1833 102.244 18.7043C103.143 19.2092 103.955 19.6155 104.68 19.9233L107.667 21.1827C108.953 21.7172 109.897 22.1181 110.498 22.3854C110.754 22.4826 110.909 22.6297 110.962 22.8268C111.016 23.0212 110.962 23.2034 110.801 23.3735C110.641 23.5408 110.41 23.6421 110.109 23.6772C109.808 23.7123 109.53 23.6731 109.274 23.5597L106.739 22.5312L103.846 21.3122C103.12 20.9883 102.275 20.5712 101.311 20.0609C100.346 19.548 99.522 19.0391 98.8378 18.5343C98.644 18.6179 98.4421 18.6598 98.2318 18.6598C98.0381 18.6598 97.5991 18.6665 96.9149 18.68C96.2266 18.6962 95.7608 18.7111 95.5176 18.7246C95.2703 18.7381 94.9117 18.7624 94.4418 18.7975C93.9678 18.8326 93.5762 18.892 93.2671 18.9757C92.9579 19.0593 92.6529 19.1646 92.352 19.2915C92.1377 19.3887 91.9027 19.4306 91.6472 19.4171C90.0603 21.2556 88.6032 22.6445 87.2759 23.584C87.0863 23.7217 86.8349 23.7987 86.5216 23.8149C86.2125 23.8284 85.9508 23.769 85.7364 23.6367C85.5221 23.5017 85.4046 23.333 85.384 23.1305C85.3634 22.928 85.4603 22.7566 85.6746 22.6162ZM114.542 13.8449C115.033 13.7747 115.525 13.718 116.02 13.6748C116.51 13.6343 117.046 13.5992 117.627 13.5695C118.204 13.5425 118.668 13.525 119.018 13.5169C119.373 13.5115 119.905 13.498 120.614 13.4764C121.318 13.4548 121.788 13.444 122.023 13.444L123.532 13.4035C123.552 13.0795 123.81 12.8689 124.305 12.7717C124.581 12.7016 124.853 12.7124 125.121 12.8041C125.389 12.8959 125.566 13.039 125.652 13.2334L125.751 13.3832C130.611 13.3535 135.203 13.5277 139.527 13.9056C139.823 13.9353 140.065 14.0312 140.25 14.1931C140.431 14.3524 140.499 14.5306 140.454 14.7277C140.413 14.9248 140.269 15.0827 140.021 15.2015C139.774 15.3203 139.502 15.3662 139.205 15.3392C135.178 14.9747 130.895 14.7992 126.357 14.8127C127.388 17.3504 127.849 19.9934 127.742 22.7417C127.742 22.9388 127.629 23.1035 127.402 23.2358C127.18 23.3681 126.918 23.4342 126.617 23.4342C126.316 23.4342 126.065 23.3613 125.863 23.2155C125.657 23.067 125.554 22.8943 125.554 22.6972C125.661 19.9786 125.181 17.3572 124.113 14.833L122.085 14.8735C121.85 14.8897 121.38 14.9045 120.675 14.918L119.136 14.9585C118.794 14.9585 118.349 14.972 117.8 14.999C117.256 15.0287 116.76 15.0611 116.31 15.0962C115.861 15.1313 115.422 15.1772 114.993 15.2339C114.692 15.2744 114.414 15.242 114.159 15.1367C113.899 15.0314 113.742 14.8816 113.689 14.6872C113.635 14.4901 113.689 14.3079 113.85 14.1405C114.01 13.9704 114.241 13.8719 114.542 13.8449ZM151.985 17.4814C152.884 17.341 154.275 17.2573 156.158 17.2303C155.989 17.0332 155.69 16.5918 155.262 15.9061C154.982 15.458 154.724 15.1137 154.489 14.8735L153.333 16.0316L151.985 17.4814ZM144.374 22.6162C145.252 21.9845 146.07 21.2717 146.829 20.478C147.591 19.687 148.399 18.7732 149.252 17.7365C150.11 16.7268 150.849 15.9061 151.472 15.2744C152.457 14.2782 153.121 13.6545 153.463 13.4035C153.57 13.3198 153.677 13.2563 153.784 13.2131C154.019 13.0863 154.287 13.0296 154.588 13.0431C154.905 13.0593 155.171 13.1511 155.385 13.3184C156.074 13.7396 156.707 14.4159 157.284 15.3473C157.861 16.2814 158.31 16.8807 158.631 17.1453C159.254 17.6636 160.025 18.1833 160.944 18.7043C161.842 19.2092 162.656 19.6155 163.386 19.9233L166.372 21.1827C167.654 21.7172 168.596 22.1181 169.198 22.3854C169.453 22.4826 169.608 22.6297 169.662 22.8268C169.715 23.0212 169.662 23.2034 169.501 23.3735C169.34 23.5408 169.109 23.6421 168.808 23.6772C168.512 23.7123 168.233 23.6731 167.974 23.5597L165.439 22.5312L162.551 21.3122C161.822 20.9883 160.975 20.5712 160.01 20.0609C159.05 19.548 158.225 19.0391 157.537 18.5343C157.347 18.6179 157.146 18.6598 156.931 18.6598C156.737 18.6598 156.298 18.6665 155.614 18.68C154.93 18.6962 154.464 18.7111 154.217 18.7246C153.97 18.7381 153.611 18.7624 153.141 18.7975C152.671 18.8326 152.28 18.892 151.966 18.9757C151.657 19.0593 151.352 19.1646 151.051 19.2915C150.837 19.3887 150.602 19.4306 150.347 19.4171C148.764 21.2556 147.309 22.6445 145.981 23.584C145.788 23.7217 145.536 23.7987 145.227 23.8149C144.914 23.8284 144.65 23.769 144.436 23.6367C144.221 23.5017 144.104 23.333 144.083 23.1305C144.063 22.928 144.16 22.7566 144.374 22.6162ZM173.272 22.6972C173.767 22.3489 174.443 21.8373 175.3 21.1624C176.153 20.4902 176.774 20.0137 177.161 19.7329L183.517 15.1286C183.859 14.8883 184.385 14.5792 185.094 14.2012C185.543 13.9502 185.939 13.7544 186.281 13.6141C186.837 13.3738 187.32 13.2536 187.728 13.2536C188.197 13.2536 188.667 13.3805 189.137 13.6343C189.418 13.8017 189.716 14.0325 190.034 14.3268C190.508 14.7911 191.023 15.4161 191.579 16.2017C191.942 16.7336 192.348 17.3639 192.797 18.0929C192.884 18.2332 192.975 18.3912 193.07 18.5667C193.168 18.7421 193.249 18.8758 193.311 18.9676C193.377 19.0566 193.42 19.1228 193.441 19.166C193.614 19.4171 193.859 19.7329 194.176 20.1136L195.048 21.1017C195.196 21.269 195.227 21.4472 195.141 21.6362C195.058 21.8252 194.883 21.9696 194.615 22.0695C194.347 22.1667 194.069 22.1869 193.781 22.1303C193.488 22.0736 193.267 21.9548 193.119 21.7739L192.284 20.806C191.922 20.3984 191.643 20.0474 191.45 19.7532L190.776 18.6193C190.368 17.9606 189.972 17.3504 189.589 16.7889C189.073 16.06 188.624 15.5133 188.241 15.1488C188.047 14.9518 187.864 14.8114 187.691 14.7277C187.629 14.7547 187.554 14.783 187.468 14.8127C187.212 14.9234 186.881 15.084 186.473 15.2946C185.829 15.6456 185.38 15.9128 185.125 16.0964C184.523 16.5014 182.402 18.0362 178.763 20.7008C178.4 20.968 177.786 21.4445 176.92 22.1303C176.05 22.8187 175.37 23.3303 174.88 23.665C174.665 23.8189 174.408 23.8959 174.107 23.8959C173.81 23.8959 173.548 23.8297 173.322 23.6974C173.099 23.5651 172.988 23.4005 172.988 23.2034C172.988 23.0063 173.083 22.8376 173.272 22.6972ZM199.957 22.0695C199.85 22.0128 199.712 22.0331 199.543 22.1303C199.584 22.1168 199.722 22.0965 199.957 22.0695ZM202.368 14.4766C201.767 16.9441 201.412 18.3669 201.305 18.7448C201.284 18.7583 201.243 18.8771 201.181 19.1012C201.115 19.3253 201.029 19.6128 200.922 19.9637L200.631 20.9113C200.503 21.3595 200.408 21.7104 200.347 21.9642C200.536 21.9075 200.738 21.8225 200.953 21.7091C201.616 21.3581 202.43 20.7912 203.395 20.0083L205.899 17.8418C206.863 16.9563 207.55 16.3745 207.958 16.0964C208.749 15.5484 209.679 14.9869 210.746 14.4118C211.261 14.131 211.68 13.9205 212.001 13.7801C212.195 13.6964 212.366 13.6262 212.514 13.5695L212.898 13.4885C213.219 13.4453 213.51 13.4804 213.769 13.5938C214.153 13.7612 214.431 14.0555 214.604 14.4766C214.687 14.7412 214.75 15.0773 214.796 15.4849C214.858 16.1437 214.858 17.0265 214.796 18.1334C214.75 18.8623 214.67 19.7599 214.555 20.8263C214.435 21.8927 214.375 22.4677 214.375 22.5514C214.375 22.7485 214.264 22.9172 214.042 23.0576C213.815 23.198 213.553 23.2641 213.256 23.256C212.955 23.2479 212.698 23.171 212.483 23.0252C212.269 22.8767 212.172 22.7053 212.193 22.5109C212.193 22.411 212.253 21.8292 212.372 20.7656C212.488 19.6992 212.568 18.8015 212.613 18.0726C212.655 17.0197 212.655 16.1923 212.613 15.5902C212.593 15.4768 212.582 15.3716 212.582 15.2744L212.131 15.5052C211.146 16.0397 210.289 16.5581 209.559 17.0602C209.262 17.2708 208.632 17.8107 207.667 18.68C206.488 19.7464 205.643 20.4902 205.132 20.9113C204.06 21.7806 203.119 22.4259 202.307 22.847C201.082 23.4761 199.967 23.7001 198.962 23.5192C198.533 23.4356 198.255 23.2466 198.127 22.9523C198.106 22.8686 198.086 22.7701 198.065 22.6567C198.065 22.5163 198.086 22.3273 198.127 22.0898C198.193 21.782 198.31 21.3055 198.479 20.6603L198.77 19.6924C198.857 19.355 198.937 19.0742 199.011 18.8501C199.085 18.626 199.122 18.5073 199.122 18.4938C199.23 18.1131 199.584 16.7039 200.186 14.266C200.248 14.069 200.396 13.911 200.631 13.7922C200.87 13.6734 201.138 13.6316 201.435 13.6667C201.736 13.7018 201.977 13.7963 202.158 13.9502C202.34 14.1041 202.41 14.2795 202.368 14.4766Z" fill="white"/>
<path fill-rule="evenodd" clip-rule="evenodd" d="M11.8956 1.05263C25.9498 11.0444 25.7581 10.8945 38.5346 21.8854C38.8357 22.1445 39.1011 22.4846 39.1095 22.8346C39.1184 23.215 38.8545 23.5971 38.5346 23.8838C37.7181 24.6153 35.3405 25.3825 35.3405 25.3825L37.7041 23.534C37.5647 23.4099 37.4898 23.3353 37.35 23.2115C34.0218 25.6147 33.9065 25.5047 36.9889 22.8932C36.8681 22.7873 36.7471 22.6818 36.6259 22.5765C32.8135 25.1975 33.3822 24.5867 36.2675 22.2669C36.143 22.1602 36.0184 22.0532 35.8934 21.9468C32.4062 24.4763 32.4029 24.2826 35.532 21.6404C35.4071 21.535 35.2821 21.4298 35.1566 21.325C30.7134 24.3962 32.4439 22.9298 34.7844 21.0151L34.416 20.71C30.4782 23.5723 31.2388 22.7807 34.0397 20.4025L33.668 20.1005C29.9242 22.8156 30.2404 22.3681 33.2873 19.7933C33.1613 19.693 33.0364 19.5914 32.9103 19.4909C29.5368 21.933 29.1025 22.0726 32.5285 19.1885C32.4003 19.087 32.2718 18.9859 32.1429 18.8851C28.8887 21.2426 28.2273 21.5649 31.7665 18.5902C31.6366 18.4886 31.5065 18.3875 31.3763 18.2864C27.525 21.092 28.0379 20.4931 30.9921 17.9897C30.8648 17.8916 30.7368 17.7939 30.6091 17.6959C27.0953 20.2411 26.9396 20.1612 30.2176 17.3973C30.0883 17.2979 29.9577 17.1998 29.8284 17.1005C25.9655 19.9114 26.5431 19.2627 29.4406 16.8066L29.0541 16.5157C25.7548 18.8971 25.2423 19.0965 28.6588 16.2198C28.5274 16.1206 28.3949 16.0228 28.2636 15.9239C24.9503 18.3251 24.5237 18.4617 27.8746 15.6348L27.4769 15.3408C24.2685 17.6603 23.6924 17.9154 27.0893 15.0547C26.9584 14.9582 26.8275 14.8613 26.6954 14.7655C22.9542 17.4705 23.4691 16.868 26.2935 14.4708C26.1643 14.3754 26.0338 14.281 25.9041 14.1859C22.5179 16.6235 22.3898 16.5233 25.5063 13.8958C25.3722 13.7986 25.2381 13.7012 25.1046 13.6034C21.3193 16.346 22.0793 15.5605 24.7061 13.3139C24.5748 13.2186 24.4435 13.1236 24.3124 13.0282C20.7677 15.5866 21.1063 15.1226 23.9121 12.7382L23.713 12.5938C23.6717 12.5594 23.6317 12.5247 23.5905 12.4904C19.8564 15.2622 20.7689 14.4185 23.3431 12.2819C23.2627 12.2134 23.1811 12.1458 23.1007 12.0772C20.1095 14.2855 19.4804 14.6441 22.8534 11.8687C22.7713 11.7988 22.688 11.7299 22.606 11.6601C19.2174 14.1765 19.3195 13.9627 22.3588 11.4517C22.2767 11.3818 22.1934 11.3129 22.1113 11.243C18.4032 14.0061 19.1102 13.3215 21.8653 11.0374C21.7837 10.9699 21.7032 10.9013 21.6216 10.8336C18.4139 13.2108 18.062 13.3522 21.3731 10.6261C21.2898 10.5572 21.2077 10.4873 21.1244 10.4184C17.1072 13.4118 18.3692 12.2958 20.876 10.2109L20.6285 10.006C17.6687 12.2006 16.7709 12.7736 20.3813 9.80134L20.1353 9.59761C16.7657 12.099 16.6076 12.0893 19.8868 9.39197L19.6357 9.18424C17.0962 11.0572 15.3648 12.2914 19.3847 8.9785C19.3035 8.91132 19.2212 8.84498 19.14 8.77775C13.795 12.7089 18.0673 9.33719 18.889 8.57203C18.8062 8.50546 18.7246 8.43775 18.6418 8.37109C16.5915 9.86566 13.9368 11.8877 18.3895 8.16628C18.3051 8.09813 18.2218 8.02944 18.1373 7.96149C15.6908 9.75922 13.7136 11.1865 17.8864 7.75962L17.6305 7.55382C15.3483 9.22821 13.0771 10.8938 17.3835 7.35493C17.2987 7.28739 17.2145 7.21903 17.1288 7.152C12.5102 10.5847 14.8422 8.6531 16.8767 6.95106C16.7917 6.88352 16.7065 6.81615 16.6209 6.74912C12.8842 9.57889 13.2879 9.02363 16.3669 6.54874C16.2825 6.48216 16.198 6.41583 16.1134 6.34958C13.5019 8.30909 11.7793 9.47268 15.8593 6.1508C15.7722 6.08276 15.685 6.01486 15.5976 5.94697C12.5755 8.19063 11.5973 8.82698 15.3425 5.74912C15.2573 5.68328 15.1721 5.61756 15.0872 5.55138C11.4705 8.24494 11.6407 7.97589 14.8269 5.3516C14.7421 5.28599 14.6559 5.21961 14.5713 5.15545C10.9146 7.87442 11.1763 7.54135 14.3143 4.96019C14.2287 4.89483 14.142 4.82914 14.0575 4.765C9.91545 7.8441 11.1981 6.71012 13.7893 4.56283C13.7043 4.49808 13.6167 4.43338 13.5324 4.3695C10.2492 6.81955 9.82285 7.03185 13.2706 4.17415C13.1835 4.10976 13.0974 4.04615 13.0086 3.98061C11.2366 5.25577 8.18208 7.55 12.7459 3.78645C12.6588 3.72206 12.5691 3.65753 12.4827 3.59389C9.53332 5.77481 8.54745 6.41276 12.2162 3.40052C12.1251 3.3348 12.0399 3.272 11.9519 3.20898C7.77567 6.31724 9.3159 4.97801 11.6866 3.01846C11.5969 2.95407 11.5081 2.89034 11.4209 2.82772C7.80734 5.50959 8.21782 5.05313 11.1495 2.63504C11.0597 2.57235 10.97 2.50785 10.8813 2.4461C7.04463 5.29829 7.99483 4.42361 10.6108 2.25645C10.522 2.19437 10.4318 2.1317 10.3437 2.07042C6.90359 4.61984 7.11229 4.32146 10.0709 1.88182C9.9039 1.76811 9.93978 1.80832 9.78881 1.70106L7.42517 3.54952C7.42517 3.54952 8.40622 1.69015 9.34163 1.05161C9.70815 0.801395 10.1967 0.594832 10.6832 0.601987C11.1308 0.608061 11.5607 0.815475 11.8969 1.05161L11.8956 1.05263Z" fill="white"/>
<path d="M5.80099 12.271C6.6114 12.8158 8.32441 14.216 9.30902 14.4369C10.2936 14.6578 10.365 14.4238 10.9707 14.2925L5.80099 12.271ZM0.077366 6.63979L10.9707 14.2925L14.1095 15.8808L0.077366 6.63979ZM13.0017 16.7471L14.1095 15.8808L0.815898 6.63979C0.815898 6.63979 0.251439 6.50366 0.077366 6.63979C-0.0967075 6.77592 0.077366 7.21735 0.077366 7.21735L11.8939 17.6135L13.0017 16.7471Z" fill="white"/>
<path fill-rule="evenodd" clip-rule="evenodd" d="M28.6955 24.3999C27.0338 23.1003 25.0028 23.8223 24.0797 23.6779C22.1122 22.9063 19.6485 20.2125 19.6485 20.2125L13.3709 15.3032C13.0017 15.0145 12.0785 14.5813 11.1554 15.3032C10.2322 16.0252 10.7861 16.7471 11.1554 17.0359L17.4451 21.9356C18.9154 23.0987 20.7632 25.5683 20.387 26.5657C19.4638 27.5765 19.2792 28.2984 19.8331 29.5979C20.387 30.8975 23.1565 32.4858 24.4489 30.0311L24.6336 29.5979C24.8307 29.1967 24.8967 28.663 25.5567 28.5872L25.0028 28.154L25.1875 28.0096C25.3721 27.8652 25.0028 27.5765 24.8182 27.7209L24.6336 27.8652L24.0797 27.4321C22.9576 26.5462 22.418 26.4213 21.6794 25.8438C19.6479 24.0437 18.7253 21.8008 18.5291 21.0879C18.9643 20.9948 19.6041 21.1387 20.9409 22.0896L23.7104 23.9667C24.0797 24.6886 24.172 25.2662 24.2181 25.7355C24.2643 26.2047 24.2643 26.5657 24.4489 26.8545L25.7414 27.8652C26.4799 28.154 28.241 28.4593 29.0648 28.154L29.434 27.8652L30.068 28.361C30.068 28.361 30.1841 28.7226 30.2706 28.6549L30.6168 28.3841C30.6918 28.3255 30.2526 28.2166 30.2526 28.2166L29.6186 27.7209L29.9879 27.4321C30.1725 26.1326 30.3572 25.6994 28.6955 24.3999V24.3999ZM28.5801 24.7969C28.8468 25.0055 29.0727 25.2419 29.2449 25.4927C29.417 25.7434 29.5321 26.0036 29.5836 26.2584C29.635 26.5131 29.6218 26.7575 29.5446 26.9774C29.4675 27.1974 29.328 27.3887 29.134 27.5404C28.7422 27.8467 28.1526 27.9732 27.4947 27.892C26.8368 27.8107 26.1646 27.5284 25.626 27.1072C25.0873 26.6859 24.7263 26.1603 24.6225 25.6458C24.5186 25.1313 24.6803 24.6701 25.0721 24.3638C25.266 24.2121 25.5106 24.1029 25.7919 24.0426C26.0732 23.9823 26.3856 23.9719 26.7114 24.0122C27.0371 24.0524 27.3698 24.1424 27.6904 24.2771C28.0111 24.4117 28.3134 24.5884 28.5801 24.7969V24.7969ZM12.6324 15.592C12.9383 15.8313 12.9383 16.2191 12.6324 16.4584C12.3265 16.6976 11.8305 16.6976 11.5246 16.4584C11.2187 16.2191 11.2187 15.8313 11.5246 15.592C11.8305 15.3528 12.3265 15.3528 12.6324 15.592ZM12.817 16.0252H11.34H12.817ZM23.1017 27.2414C23.4582 27.5297 23.7488 27.9003 23.939 28.3091C24.2025 28.8753 24.2551 29.4752 24.0854 29.9768C23.9156 30.4785 23.5374 30.8409 23.0339 30.9843C22.5303 31.1276 21.9428 31.0401 21.4005 30.7412C20.8581 30.4423 20.4054 29.9564 20.1418 29.3904C19.8783 28.8242 19.8257 28.2244 19.9954 27.7227C20.1652 27.221 20.5434 26.8586 21.0469 26.7152C21.3651 26.6246 21.7199 26.6252 22.079 26.7172C22.438 26.8091 22.7897 26.9894 23.1017 27.2414V27.2414Z" fill="white"/>
</svg>
