<svg xmlns="http://www.w3.org/2000/svg" version="1.1" xmlns:xlink="http://www.w3.org/1999/xlink" xmlns:svgjs="http://svgjs.com/svgjs" height="183.8390625" width="276.7860076904297"><defs id="SvgjsDefs1049"></defs><g id="SvgjsG1050" rel="mainfill" name="main_text" xmlns:name="main_text" transform="translate(46.38323822021485,-133.08046875)" fill="#000000"><path d="M22.79 239.96L22.79 238.82L23.71 238.82Q24.67 238.82 25.34 238.14Q26.02 237.47 26.06 236.55L26.06 225.85L9.34 225.85L9.34 236.51Q9.43 237.47 10.08 238.14Q10.74 238.82 11.74 238.82L12.66 238.82L12.66 239.96L2.58 239.96L2.58 238.82L3.49 238.82Q4.50 238.82 5.15 238.14Q5.81 237.47 5.89 236.51L5.89 212.85Q5.81 211.88 5.15 211.19Q4.50 210.49 3.49 210.49L2.58 210.49L2.58 209.35L12.66 209.35L12.66 210.49L11.74 210.49Q10.74 210.49 10.08 211.19Q9.43 211.88 9.34 212.85L9.34 223.85L26.06 223.85L26.06 212.85Q26.02 211.93 25.34 211.25Q24.67 210.57 23.71 210.57L22.79 210.57L22.79 209.44L32.83 209.44L32.83 210.57L31.96 210.57Q30.95 210.57 30.30 211.27Q29.64 211.97 29.56 212.93L29.56 236.55Q29.64 237.51 30.30 238.19Q30.95 238.86 31.96 238.86L32.83 238.86L32.83 240L22.79 239.96ZM60.73 236.59Q61.30 237.82 62.10 238.34Q62.91 238.86 63.65 238.86L64.35 238.86L64.35 240L54.92 240L54.92 238.86L55.62 238.86Q56.10 238.86 56.51 238.52Q56.93 238.17 56.93 237.51Q56.93 237.21 56.80 236.81L54.57 231.40L44.31 231.40L42.09 236.68Q41.91 237.07 41.91 237.51Q41.91 238.17 42.30 238.52Q42.70 238.86 43.18 238.86L43.88 238.86L43.88 240L35.06 240L35.06 238.86L35.76 238.86Q36.50 238.86 37.33 238.34Q38.16 237.82 38.77 236.59L47.59 217.78Q48.02 216.86 48.37 216.03Q48.68 215.29 48.92 214.50Q49.16 213.72 49.20 213.19L50.16 213.19L60.73 236.59M53.74 229.39L49.51 219.09L45.14 229.39L53.74 229.39ZM83.91 213.76Q84.52 213.76 85.26 213.67Q86.01 213.59 86.73 213.46Q87.45 213.33 88.06 213.17Q88.67 213.02 89.02 212.89L89.02 218.61L87.84 218.61L87.84 217.60Q87.84 216.86 87.34 216.34Q86.83 215.81 86.05 215.77L78.76 215.77L78.76 236.94Q78.80 237.73 79.41 238.30Q80.02 238.86 80.90 238.86L81.77 238.86L81.77 240L72.30 240L72.30 238.86L73.17 238.86Q74.04 238.86 74.63 238.30Q75.22 237.73 75.31 236.90L75.31 215.77L67.97 215.77Q67.19 215.81 66.71 216.34Q66.23 216.86 66.23 217.60L66.23 218.61L65.01 218.61L65.01 212.89Q65.36 213.02 65.97 213.17Q66.58 213.33 67.30 213.46Q68.02 213.59 68.76 213.67Q69.50 213.76 70.11 213.76L83.91 213.76ZM114.91 236.59Q115.47 237.82 116.28 238.34Q117.09 238.86 117.83 238.86L118.53 238.86L118.53 240L109.10 240L109.10 238.86L109.80 238.86Q110.28 238.86 110.69 238.52Q111.11 238.17 111.11 237.51Q111.11 237.21 110.98 236.81L108.75 231.40L98.49 231.40L96.26 236.68Q96.09 237.07 96.09 237.51Q96.09 238.17 96.48 238.52Q96.88 238.86 97.36 238.86L98.05 238.86L98.05 240L89.24 240L89.24 238.86L89.93 238.86Q90.68 238.86 91.51 238.34Q92.34 237.82 92.95 236.59L101.77 217.78Q102.20 216.86 102.55 216.03Q102.86 215.29 103.10 214.50Q103.34 213.72 103.38 213.19L104.34 213.19L114.91 236.59M107.92 229.39L103.69 219.09L99.32 229.39L107.92 229.39ZM128.79 231.05Q128.79 231.57 128.75 232.10L128.75 232.88L128.57 233.06Q128.44 233.84 128.13 234.59Q127.48 236.20 126.34 237.40Q125.21 238.60 123.66 239.28Q122.11 239.96 119.32 239.96L119.32 238.82Q121.37 238.43 122.28 237.71Q123.20 236.99 123.86 235.90Q124.51 234.80 124.90 233.54Q125.17 232.71 125.25 231.84L125.25 216.56Q125.21 215.77 124.64 215.20Q124.07 214.63 123.29 214.63L122.46 214.63L122.46 213.46L148.39 213.46L148.39 214.63L147.56 214.63Q146.78 214.63 146.21 215.18Q145.64 215.73 145.60 216.47L145.60 236.94Q145.64 237.73 146.21 238.30Q146.78 238.86 147.56 238.86L148.35 238.86L148.48 240L139.35 240L139.35 238.86L140.18 238.86Q140.97 238.86 141.54 238.30Q142.11 237.73 142.15 236.94L142.15 217.43Q142.11 216.60 141.54 216.01Q140.97 215.42 140.23 215.42L130.62 215.42Q129.88 215.42 129.34 215.99Q128.79 216.56 128.75 217.34L128.79 231.05ZM159.35 213.54L159.35 214.68L158.26 214.68Q157.47 214.68 156.91 215.20Q156.34 215.73 156.25 216.47L156.25 233.50L177.82 213.19L178.86 213.19Q178.73 214.07 178.60 214.98Q178.52 215.77 178.43 216.80Q178.34 217.82 178.34 218.87L178.34 237.03Q178.38 237.82 178.97 238.36Q179.56 238.91 180.35 238.91L181.44 238.91L181.44 240.04L172.71 240.04L172.71 238.91L173.80 238.91Q174.59 238.91 175.15 238.36Q175.72 237.82 175.81 237.03L175.81 220.18L154.20 240.65L153.24 240.65Q153.37 239.74 153.46 238.78Q153.54 237.95 153.61 236.92Q153.67 235.90 153.67 234.89L153.67 216.56Q153.59 215.81 153.02 215.29Q152.45 214.77 151.62 214.77L150.57 214.77L150.57 213.63L159.35 213.54Z" fill="#000000" style="fill: rgb(0, 0, 0);"></path></g><g id="SvgjsG1051" transform="translate(0,-0.00390625) scale(1.8)" rel="mainfill" name="outline_container" xmlns:name="outlineContainer_mainfill" fill="#616161"><defs><style>.opacity_08{opacity:0.8;}</style></defs><title>template-1_1</title><g id="Слой_2" data-name="Слой 2" fill="#616161"><g id="Layer_1" data-name="Layer 1" fill="#616161"><g class="opacity_08" fill="#616161"><rect y="27.97" width="153.77" height="1.39"></rect><rect y="30.57" width="153.77" height="0.49"></rect><rect y="72.84" width="153.77" height="1.39"></rect><rect y="71.14" width="153.77" height="0.49"></rect><path d="M15.85,23.5c0-2.05-2.32-3-3.55-1.14a1.45,1.45,0,0,1-2.38-.11c-.6-.87-1.09-2,.31-3.89A2.69,2.69,0,0,0,7.36,20.1c-1,2.08,1.32,3.13,2.64,3.32s1.39.23,1.39.46-1,.3-2.3,0-2,1.25-1.13,1.63c.7.3,1.08,0,1.67-.34.38-.24,1.11-.73,1.59-.56s.08.43-.15.63c-.4.37-.93.62-1.2,1.12-.41.72-.4,2.09.47,2.47.6.26,1.81,0,1.77-.26s-.57-.46-.9-.76A1.17,1.17,0,0,1,11,26.1c.64-.75,1.43-.86,1.73-.45S15.92,27,15.85,23.5Z" fill="#616161" style="fill: rgb(97, 97, 97);"></path><path d="M18.19,20.73a1.56,1.56,0,0,1,1.48,1.45,2.1,2.1,0,0,1-.75,1.87c-.63.36-1.34-.2-1.67-.68A1.88,1.88,0,0,1,17,21.56,1.4,1.4,0,0,1,18.19,20.73Z" fill="#616161" style="fill: rgb(97, 97, 97);"></path><path d="M27.13,15.82c.35.31-.35,1-1.11,2.24a15.52,15.52,0,0,1-3.59,3.72c-1.11.73-2.81.11-1.89-1.08,1.05-1.35,2.85-1.09,4.13-2.37S27,15.65,27.13,15.82Z" fill="#616161" style="fill: rgb(97, 97, 97);"></path><path d="M22,13.57c.33,0-.58.51-1.1,1.24s.37,2.22,1.58,1.87,3-1.76,5.29-3.57,4.3-2.92,7.14-1.94S37,14,36.33,14.6s-2.1.51-2.21-.65.76-.89,1.33-1.11-.47-1.13-1.81-1.08a7.46,7.46,0,0,0-3.86,1.16,3.33,3.33,0,0,0-1.15,3.32c.21,1.66.16,2.45.79,2.28s.17-1.16,1-1.2,1,0,1.08-.34.08-1.2-.17-1.24-.41-.38-.62-.38a1.13,1.13,0,0,1,1.42.38c.74.79.2,1.2,0,1.49,0,0,1.16.55,1.2.92S32.5,19.44,32,19.57a4.29,4.29,0,0,1-1.09.08.58.58,0,0,0,.55.66,2,2,0,0,1,1.66,1.88c0,1.16-.91,1.29-1,1.62s-.95,1.38-1.74.71.41-.42.95-.58.38-.71-.08-1-2.12-.29-2.5-1.17-.87-.12-.87.38-.87,1-1.37,1.16-.55.38-.09,1.29-.16.8-.58.5-.58-1.2-1-1.5a1.44,1.44,0,0,1,0-2.2,8.38,8.38,0,0,1,2.62-1.2c.39-.22-.05-1.27-.05-2.11a8.85,8.85,0,0,1,.44-1.77c0-.33-.77-.5-.44-1.72l-3.33,2.94a5.9,5.9,0,0,1-3.44,1.61c-1.5.17-3.16-.33-2.16-.72a3.38,3.38,0,0,0,1.11-.55,2.24,2.24,0,0,1-1.43-.4,1.84,1.84,0,0,1-.63-2.11c.27-1.07-.05,1.06,1.72.67C19.29,16,18.88,13.49,22,13.57Z" fill="#616161" style="fill: rgb(97, 97, 97);"></path><path d="M58.11,25.59c.29,0-.51-.44-1-1.08a1.19,1.19,0,0,1,1.39-1.65c1.07.31,2.61,1.55,4.65,3.14s3.78,2.56,6.27,1.71,1.88-2.5,1.26-3-1.85-.45-2,.57.67.78,1.17,1-.41,1-1.59,1a6.51,6.51,0,0,1-3.4-1,2.91,2.91,0,0,1-1-2.91c.19-1.46.15-2.16.7-2s.15,1,.91,1.06.92,0,1,.29.08,1.07-.14,1.1S66,24,65.81,24a1,1,0,0,0,1.24-.33c.66-.7.19-1.06,0-1.32,0,0,1-.47,1.07-.8s-.77-1.14-1.25-1.25a3.48,3.48,0,0,0-1-.07.52.52,0,0,1,.48-.59A1.73,1.73,0,0,0,67.86,18c0-1-.81-1.14-.84-1.43s-.85-1.21-1.54-.62.37.36.84.51.33.62-.07.88-1.87.25-2.2,1-.77.11-.77-.33-.77-.88-1.2-1-.48-.33-.08-1.14-.14-.69-.51-.44-.51,1.06-.88,1.32a1.27,1.27,0,0,0,0,1.94A7,7,0,0,0,63,19.76c.35.2,0,1.12,0,1.86a7.78,7.78,0,0,0,.39,1.56c0,.29-.69.44-.39,1.51L60,22.11a5.16,5.16,0,0,0-3-1.42c-1.31-.15-2.78.29-1.9.63s1,.48,1,.48a1.94,1.94,0,0,0-1.25.36A1.6,1.6,0,0,0,54.22,24c.23.94,0-.93,1.52-.59C55.74,23.42,55.37,25.67,58.11,25.59Z" fill="#616161" style="fill: rgb(97, 97, 97);"></path><path d="M95.66,25.59c-.29,0,.51-.44,1-1.08s-.33-2-1.4-1.65S92.62,24.41,90.58,26s-3.78,2.56-6.27,1.71-1.87-2.5-1.26-3,1.86-.45,2,.57-.66.78-1.16,1,.4,1,1.59,1a6.44,6.44,0,0,0,3.39-1,2.91,2.91,0,0,0,1-2.91c-.18-1.46-.14-2.16-.69-2s-.15,1-.92,1.06-.91,0-1,.29-.07,1.07.15,1.1.36.33.55.33a1,1,0,0,1-1.25-.33c-.66-.7-.18-1.06,0-1.32,0,0-1-.47-1.06-.8s.77-1.14,1.24-1.25a3.49,3.49,0,0,1,.95-.07.51.51,0,0,0-.47-.59A1.72,1.72,0,0,1,85.92,18c0-1,.8-1.14.84-1.43s.84-1.21,1.53-.62-.36.36-.84.51-.33.62.08.88,1.86.25,2.19,1,.77.11.77-.33.77-.88,1.21-1,.48-.33.07-1.14.15-.69.51-.44.52,1.06.88,1.32a1.27,1.27,0,0,1,0,1.94,7,7,0,0,1-2.31,1.05c-.34.2.05,1.12.05,1.86a7.78,7.78,0,0,1-.39,1.56c0,.29.68.44.39,1.51l2.93-2.58a5.1,5.1,0,0,1,3-1.42c1.32-.15,2.78.29,1.9.63s-1,.48-1,.48a2,2,0,0,1,1.26.36A1.6,1.6,0,0,1,99.55,24c-.23.94,0-.93-1.51-.59C98,23.42,98.41,25.67,95.66,25.59Z" fill="#616161" style="fill: rgb(97, 97, 97);"></path><path d="M31.8,4.5c-.77.06-2.65-.06-3-1.69-.29-1.33,1.07-1.46,1.51-.72.28.48.12,1.41,1,1.61s1.3.39,1.2.57S32.41,4.45,31.8,4.5Z" fill="#616161" style="fill: rgb(97, 97, 97);"></path><path d="M33.08,4.55a8.73,8.73,0,0,0-2.71.87,7.25,7.25,0,0,0-3.1,2.48c-.56,1,.36,2.26,1.46.72A9.55,9.55,0,0,1,33.11,5C33.52,4.8,33.52,4.5,33.08,4.55Z" fill="#616161" style="fill: rgb(97, 97, 97);"></path><path d="M38.39,4.34a1.37,1.37,0,0,1-1.7.87,1.38,1.38,0,0,1-.6-1.82,1.38,1.38,0,0,1,1.7-.87A1.37,1.37,0,0,1,38.39,4.34Z" fill="#616161" style="fill: rgb(97, 97, 97);"></path><path d="M33.08,5.62c.27,0-.75,1.12-.42,1.83s1.09.91.88,1.54-1.84.51-2.09-.94A2,2,0,0,1,33.08,5.62Z" fill="#616161" style="fill: rgb(97, 97, 97);"></path><path d="M32.26,3c0-.26.66-1,2-.77s1.07.75,1,1.38S35.18,5,35.68,5.2s-.44,1.58-1.14,1.66-1.29,0-1.17-.45.85-.48.94-.9c.12-.58,0-1.89-.69-1.93S32.31,3.81,32.26,3Z" fill="#616161" style="fill: rgb(97, 97, 97);"></path><path d="M39.09,4.08c.61-.59,2.61,0,4.85,3.91s3.87,8,7.58,8.66A9,9,0,0,0,57.47,16a20.74,20.74,0,0,1-4-.21A8,8,0,0,1,46.44,8c-.29-5.41,2.58-6.54,4-6,.56.2-.17.59-.63.63s-.79,1.21-.42,1.54-.25,1.7-1,2.49-.84,3.63.49,5.42a5.83,5.83,0,0,0,2.54,2.16s-2.74-2.45-2-5.37S51,5.37,52,5.53s-.25,1-.34,1.25.54.5.29,1-1.08.58-.45,1,.62-.17,1-.17.29.63.25,1.08a7.44,7.44,0,0,1-.67,2.46A1.89,1.89,0,0,0,53.64,15c1.79.12,3.87-.42,4.91.33a3.71,3.71,0,0,0,2.25-2.58,2.11,2.11,0,0,1-2-.13c-1.29-.62-1.21-1.79-.75-2s.62,1.29,1.5,1.21A2.39,2.39,0,0,0,61.34,11c.2-.42,1-.71.75.91s-.63,3.58-3.33,4.62-3.71,1.21-4.58,1.21-1.42.79-3.29.67c-1.29-.09-2.74-.38-5.87-2,0,0,.75,1,0,1.25a5.66,5.66,0,0,1-2.79,0c-1-.25-3-.83-2.46-2.33,0,0,.83-.58,1.42-.33s1.16.79,2.08.5a.91.91,0,0,0-.42-1.09,17.15,17.15,0,0,1-2.29-1,2.14,2.14,0,0,1-.83-1.38,2.74,2.74,0,0,0-1.5-.12c-.83.16-1.33-.84.46-.88s2.83.58,4.37,2,5.58,4.33,6.91,4.71a2.83,2.83,0,0,0,2.24-.25s-1.28,0-4.07-2-3.17-4.16-4-4.95a7.94,7.94,0,0,0-4-2.05,4.13,4.13,0,0,0-3.08,1c-.88.63-2.91.68-.88-.87s6-1.17,7.74.87c0,0-1.75-3.35-3.74-3.91C39.2,5.37,38.59,4.56,39.09,4.08Z" fill="#616161" style="fill: rgb(97, 97, 97);"></path><path d="M44.26,21.31c.33-.77,2.4-1,6,1.72,1.49,1.14,2.91,2.38,4.47,3.42a8.85,8.85,0,0,0,4.53,1.74,5.26,5.26,0,0,0,1.19-.09c.26,0,.71-.05.56.38s-1,.34-1.36.32a16.63,16.63,0,0,1-2.53-.39c-3.34-.76-4.53-2.61-5.6-3A8,8,0,0,0,47,25.06a4.15,4.15,0,0,0-2.47,2.08c-.56.92-2.42,1.76-1.14-.46s5.07-3.4,7.47-2.2c0,0-2.92-2.42-5-2.16C44.85,22.46,44,22,44.26,21.31Z" fill="#616161" style="fill: rgb(97, 97, 97);"></path><path d="M109.61,21.31c-.33-.77-2.4-1-6,1.72-1.49,1.14-2.91,2.38-4.47,3.42a8.85,8.85,0,0,1-4.53,1.74,5.26,5.26,0,0,1-1.19-.09c-.26,0-.71-.05-.56.38s1,.34,1.36.32a16.5,16.5,0,0,0,2.52-.39c3.35-.76,4.53-2.61,5.61-3a8,8,0,0,1,4.47-.33,4.18,4.18,0,0,1,2.47,2.08c.56.92,2.42,1.76,1.14-.46s-5.07-3.4-7.47-2.2c0,0,2.92-2.42,5-2.16C109,22.46,109.88,22,109.61,21.31Z" fill="#616161" style="fill: rgb(97, 97, 97);"></path><path d="M77.08,5.21H76s.26,1.36.46,2a41.21,41.21,0,0,1,0,5A1.82,1.82,0,0,1,75.14,12a6,6,0,0,0-.89-4.9c-1.66-2-2.45-1.93-3.68-2S68.22,4.55,69.11,4s1.63-.89,1-1.36-1.59-.39-2.19-.89S67.56.87,67.1.8s-1.23,1.06-.24,1.89.53,1.63.11,1.59-1.37-1.13-1.5-2.22a2.5,2.5,0,0,0-2-1.82c-.49,0-.78.44,0,1.69C64.34,3.35,65.27,4,65,4.38s-.36.63-2.18.3-3.15-.89-2.75-2.32,1,.5,1.88-.13S61.83-.49,60.14.11a2.53,2.53,0,0,0-.89,4.17,5.25,5.25,0,0,0,3.87,1.13c.89,0,1.22.4.73.79a4.76,4.76,0,0,1-2.59.7c-1.19.07-1.78,1-.16,1.46s2.35.33,3.08-.8,1.59-2.15,2.22-1.65.17.72-.43,1.52-.2,1.39,1,1.29a1.75,1.75,0,0,1,1.71.53c.27.24,1.23,0,.93-1s-1.22-2-1.22-2.42.36-.53,1.62-.33,4.08,1.92,4.27,3.61a6.11,6.11,0,0,1-.13,2.59s-2.46-.66-2.58-2.19c-.09-1.12.2-1.29.56-1.59S70.71,6.82,70.52,9c-.12,1.44,1.42,3,3.43,3.42a1.9,1.9,0,0,1-1.69,1.42c-1.32,0-2.15-.5-2.35-1.69s-1.59-1.39-1.26.2,1.56,1.69,2.26,2,.79.73.19.73a4.7,4.7,0,0,1-2.85-.27c-1-.63-2.12-2.15-1.88-3.34s-2.22-1-1.83,1A4.47,4.47,0,0,0,69,15.92c2.38.16,4-.3,5.86-3.15A10.3,10.3,0,0,0,77,12.9Z" fill="#616161" style="fill: rgb(97, 97, 97);"></path><path d="M76.93,14s-1,.12-.88,1.88l-.94,0s-.42-.78-1-.83-1.22.69-1.14,2-.28,2,.34,2,.77-.55,1.38-1.16.5-.86,1.81-.86v1c0,.19-.78.72-1,1.38-.23.94.22,2.31,1.33,2.31Z" fill="#616161" style="fill: rgb(97, 97, 97);"></path><path d="M137.92,23.5c.05-2.05,2.32-3,3.55-1.14a1.45,1.45,0,0,0,2.38-.11c.6-.87,1.09-2-.31-3.89a2.69,2.69,0,0,1,2.87,1.74c1,2.08-1.32,3.13-2.64,3.32s-1.39.23-1.39.46,1,.3,2.3,0,2,1.25,1.13,1.63c-.7.3-1.08,0-1.67-.34-.38-.24-1.11-.73-1.59-.56s-.08.43.15.63c.4.37.92.62,1.2,1.12.41.72.4,2.09-.47,2.47-.6.26-1.81,0-1.77-.26s.57-.46.91-.76a1.18,1.18,0,0,0,.18-1.74c-.64-.75-1.43-.86-1.73-.45S137.85,27,137.92,23.5Z" fill="#616161" style="fill: rgb(97, 97, 97);"></path><path d="M135.58,20.73a1.56,1.56,0,0,0-1.48,1.45,2.1,2.1,0,0,0,.75,1.87c.63.36,1.35-.2,1.67-.68a1.88,1.88,0,0,0,.28-1.81A1.4,1.4,0,0,0,135.58,20.73Z" fill="#616161" style="fill: rgb(97, 97, 97);"></path><path d="M126.64,15.82c-.35.31.35,1,1.11,2.24a15.15,15.15,0,0,0,3.59,3.72c1.11.73,2.81.11,1.89-1.08-1-1.35-2.85-1.09-4.13-2.37S126.82,15.65,126.64,15.82Z" fill="#616161" style="fill: rgb(97, 97, 97);"></path><path d="M131.77,13.57c-.33,0,.58.51,1.1,1.24s-.37,2.22-1.58,1.87-3-1.76-5.29-3.57-4.3-2.92-7.13-1.94-2.14,2.83-1.44,3.43,2.11.51,2.22-.65-.76-.89-1.32-1.11.46-1.13,1.8-1.08A7.53,7.53,0,0,1,124,12.92a3.35,3.35,0,0,1,1.14,3.32c-.21,1.66-.16,2.45-.79,2.28s-.16-1.16-1-1.2-1,0-1.08-.34-.08-1.2.17-1.24.41-.38.62-.38a1.11,1.11,0,0,0-1.41.38c-.75.79-.21,1.2,0,1.49,0,0-1.17.55-1.21.92s.87,1.29,1.41,1.42a4.29,4.29,0,0,0,1.09.08.58.58,0,0,1-.55.66,2,2,0,0,0-1.66,1.88c0,1.16.92,1.29,1,1.62s1,1.38,1.74.71-.41-.42-1-.58-.38-.71.08-1,2.12-.29,2.5-1.17.87-.12.87.38.88,1,1.37,1.16.55.38.09,1.29.16.8.58.5.58-1.2,1-1.5a1.44,1.44,0,0,0,0-2.2,8.38,8.38,0,0,0-2.62-1.2c-.39-.22,0-1.27,0-2.11a8.85,8.85,0,0,0-.44-1.77c0-.33.77-.5.44-1.72l3.33,2.94a5.9,5.9,0,0,0,3.44,1.61c1.5.17,3.16-.33,2.17-.72a3.4,3.4,0,0,1-1.12-.55,2.24,2.24,0,0,0,1.43-.4,1.84,1.84,0,0,0,.63-2.11c-.27-1.07.05,1.06-1.72.67C134.48,16,134.89,13.49,131.77,13.57Z" fill="#616161" style="fill: rgb(97, 97, 97);"></path><path d="M122.65,4.5c.77.06,2.65-.06,3-1.69.28-1.33-1.07-1.46-1.51-.72-.28.48-.12,1.41-1,1.61s-1.3.39-1.2.57S122,4.45,122.65,4.5Z" fill="#616161" style="fill: rgb(97, 97, 97);"></path><path d="M120.69,4.55a8.65,8.65,0,0,1,2.71.87,7.19,7.19,0,0,1,3.1,2.48c.56,1-.36,2.26-1.46.72A9.55,9.55,0,0,0,120.66,5C120.25,4.8,120.25,4.5,120.69,4.55Z" fill="#616161" style="fill: rgb(97, 97, 97);"></path><path d="M115.38,4.34a1.37,1.37,0,0,0,1.7.87,1.38,1.38,0,0,0,.6-1.82,1.38,1.38,0,0,0-1.7-.87A1.37,1.37,0,0,0,115.38,4.34Z" fill="#616161" style="fill: rgb(97, 97, 97);"></path><path d="M120.69,5.62c-.27,0,.75,1.12.42,1.83S120,8.36,120.23,9s1.84.51,2.09-.94A2,2,0,0,0,120.69,5.62Z" fill="#616161" style="fill: rgb(97, 97, 97);"></path><path d="M121.51,3c0-.26-.66-1-2-.77s-1.08.75-1,1.38.06,1.37-.44,1.58.44,1.58,1.14,1.66,1.29,0,1.17-.45-.85-.48-.94-.9c-.12-.58,0-1.89.69-1.93S121.46,3.81,121.51,3Z" fill="#616161" style="fill: rgb(97, 97, 97);"></path><path d="M114.68,4.08c-.61-.59-2.6,0-4.85,3.91s-3.87,8-7.58,8.66a9,9,0,0,1-6-.62,20.74,20.74,0,0,0,4-.21A8,8,0,0,0,107.33,8c.29-5.41-2.58-6.54-4-6-.57.2.16.59.62.63s.79,1.21.42,1.54.25,1.7,1,2.49.84,3.63-.49,5.42a5.83,5.83,0,0,1-2.54,2.16s2.74-2.45,2-5.37-1.54-3.45-2.59-3.29.25,1,.34,1.25-.54.5-.29,1,1.08.58.45,1-.62-.17-1-.17-.3.63-.26,1.08a7.44,7.44,0,0,0,.67,2.46,1.89,1.89,0,0,1-1.5,2.88c-1.79.12-3.87-.42-4.91.33A3.73,3.73,0,0,1,93,12.74a2.11,2.11,0,0,0,2-.13c1.29-.62,1.21-1.79.75-2s-.62,1.29-1.49,1.21A2.4,2.4,0,0,1,92.43,11c-.2-.42-1-.71-.74.91s.62,3.58,3.32,4.62,3.71,1.21,4.58,1.21,1.42.79,3.29.67c1.29-.09,2.75-.38,5.87-2,0,0-.75,1,0,1.25a5.67,5.67,0,0,0,2.79,0c1-.25,3-.83,2.46-2.33,0,0-.83-.58-1.42-.33s-1.16.79-2.08.5a.91.91,0,0,1,.42-1.09,17.15,17.15,0,0,0,2.29-1,2.14,2.14,0,0,0,.83-1.38,2.74,2.74,0,0,1,1.5-.12c.83.16,1.33-.84-.46-.88s-2.83.58-4.37,2-5.57,4.33-6.91,4.71a2.86,2.86,0,0,1-2.25-.25s1.3,0,4.09-2,3.16-4.16,4-4.95a7.94,7.94,0,0,1,4-2.05,4.13,4.13,0,0,1,3.08,1c.88.63,2.91.68.88-.87s-6-1.17-7.74.87c0,0,1.75-3.35,3.74-3.91C114.57,5.37,115.18,4.56,114.68,4.08Z" fill="#616161" style="fill: rgb(97, 97, 97);"></path><path d="M76.69,5.21h1s-.26,1.36-.46,2a41.21,41.21,0,0,0,0,5A1.82,1.82,0,0,0,78.63,12a6,6,0,0,1,.89-4.9C81.18,5,82,5.14,83.2,5S85.55,4.55,84.65,4s-1.62-.89-1-1.36,1.59-.39,2.19-.89.36-.86.83-.93,1.22,1.06.23,1.89-.53,1.63-.1,1.59,1.36-1.13,1.49-2.22a2.5,2.5,0,0,1,2-1.82c.49,0,.78.44,0,1.69C89.43,3.35,88.5,4,88.73,4.38s.36.63,2.18.3,3.15-.89,2.75-2.32-1,.5-1.88-.13S91.94-.49,93.63.11a2.53,2.53,0,0,1,.89,4.17,5.25,5.25,0,0,1-3.87,1.13c-.89,0-1.22.4-.73.79a4.76,4.76,0,0,0,2.59.7c1.19.07,1.78,1,.16,1.46s-2.35.33-3.08-.8S88,5.41,87.37,5.91s-.17.72.43,1.52.2,1.39-1,1.29a1.77,1.77,0,0,0-1.72.53c-.27.24-1.23,0-.93-1s1.22-2,1.22-2.42-.36-.53-1.62-.33-4.08,1.92-4.27,3.61a6.11,6.11,0,0,0,.13,2.59s2.46-.66,2.58-2.19c.09-1.12-.2-1.29-.56-1.59S83.06,6.82,83.25,9c.12,1.44-1.42,3-3.43,3.42a1.9,1.9,0,0,0,1.69,1.42c1.32,0,2.15-.5,2.35-1.69s1.59-1.39,1.26.2-1.56,1.69-2.25,2-.8.73-.2.73a4.7,4.7,0,0,0,2.85-.27c1-.63,2.12-2.15,1.88-3.34s2.22-1,1.83,1a4.47,4.47,0,0,1-4.41,3.45c-2.39.16-4-.3-5.86-3.15a10.3,10.3,0,0,1-2.22.13Z" fill="#616161" style="fill: rgb(97, 97, 97);"></path><path d="M76.84,14s1,.12.88,1.88l.94,0s.42-.78,1-.83,1.22.69,1.14,2,.28,2-.34,2-.77-.55-1.38-1.16-.5-.86-1.81-.86v1c0,.19.78.72,1,1.38.24.94-.23,2.31-1.34,2.31Z" fill="#616161" style="fill: rgb(97, 97, 97);"></path><path d="M73.09,21.29c-1.82-.8-2.58-.51-3.07.24s.93.52,1.14.6,0,.73.54.88,1.16-.4,1,.31-.55.35-.83.66.27.63.63.91a7.4,7.4,0,0,0,2.26,1.17,2,2,0,0,1,1.29,1c.16.33.31,1.26.89,1.08s-.13-1.22-.21-1.61,0-.52-.1-.78a5.38,5.38,0,0,0-2.47-3.94C73.78,21.62,73.42,21.44,73.09,21.29Z" fill="#616161" style="fill: rgb(97, 97, 97);"></path><path d="M80.83,21.29c1.83-.8,2.59-.51,3.08.24s-.94.52-1.15.6,0,.73-.54.88-1.16-.4-1,.31.54.35.82.66-.26.63-.63.91a7.4,7.4,0,0,1-2.26,1.17,2,2,0,0,0-1.29,1c-.15.33-.3,1.26-.89,1.08s.14-1.22.21-1.61.06-.52.1-.78a5.44,5.44,0,0,1,2.47-3.94C80.14,21.62,80.51,21.44,80.83,21.29Z" fill="#616161" style="fill: rgb(97, 97, 97);"></path><path d="M15.85,78.7c0,2-2.32,3-3.55,1.13a1.45,1.45,0,0,0-2.38.11c-.6.87-1.09,2,.31,3.89a2.69,2.69,0,0,1-2.87-1.74C6.41,80,8.68,79,10,78.77s1.39-.23,1.39-.45-1-.31-2.3,0S7.09,77,8,76.66c.7-.31,1.08,0,1.67.33.38.24,1.11.73,1.59.56s.08-.43-.15-.63c-.4-.36-.93-.62-1.2-1.12-.41-.72-.4-2.09.47-2.47.6-.26,1.81,0,1.77.27s-.57.45-.9.75A1.17,1.17,0,0,0,11,76.09c.64.75,1.43.87,1.73.45S15.92,75.22,15.85,78.7Z" fill="#616161" style="fill: rgb(97, 97, 97);"></path><path d="M18.19,81.46A1.56,1.56,0,0,0,19.67,80a2.11,2.11,0,0,0-.75-1.87c-.63-.36-1.34.2-1.67.68A1.89,1.89,0,0,0,17,80.63,1.38,1.38,0,0,0,18.19,81.46Z" fill="#616161" style="fill: rgb(97, 97, 97);"></path><path d="M27.13,86.38c.35-.32-.35-1-1.11-2.24a15.38,15.38,0,0,0-3.59-3.73c-1.11-.73-2.81-.11-1.89,1.08,1.05,1.35,2.85,1.1,4.13,2.38S27,86.54,27.13,86.38Z" fill="#616161" style="fill: rgb(97, 97, 97);"></path><path d="M22,88.62c.33,0-.58-.51-1.1-1.24s.37-2.22,1.58-1.87,3,1.76,5.29,3.57,4.3,2.92,7.14,2,2.13-2.84,1.42-3.44-2.1-.51-2.21.65.76.89,1.33,1.11-.47,1.13-1.81,1.08a7.37,7.37,0,0,1-3.86-1.16A3.32,3.32,0,0,1,28.63,86c.21-1.67.16-2.46.79-2.29s.17,1.16,1,1.2,1,0,1.08.34.08,1.21-.17,1.25-.41.37-.62.37a1.13,1.13,0,0,0,1.42-.37c.74-.79.2-1.21,0-1.5,0,0,1.16-.54,1.2-.92S32.5,82.75,32,82.63a4,4,0,0,0-1.09-.09.58.58,0,0,1,.55-.66A2,2,0,0,0,33.08,80c0-1.16-.91-1.29-1-1.62s-.95-1.38-1.74-.71.41.42.95.58.38.71-.08,1-2.12.29-2.5,1.17-.87.12-.87-.38-.87-1-1.37-1.16-.55-.38-.09-1.29-.16-.8-.58-.5-.58,1.21-1,1.5a1.44,1.44,0,0,0,0,2.2A7.93,7.93,0,0,0,27.5,82c.39.22-.05,1.27-.05,2.11a8.85,8.85,0,0,0,.44,1.77c0,.34-.77.5-.44,1.72l-3.33-2.94A5.9,5.9,0,0,0,20.68,83c-1.5-.16-3.16.34-2.16.72a3.38,3.38,0,0,1,1.11.55,2.24,2.24,0,0,0-1.43.4,1.85,1.85,0,0,0-.63,2.11c.27,1.07-.05-1.06,1.72-.67C19.29,86.15,18.88,88.7,22,88.62Z" fill="#616161" style="fill: rgb(97, 97, 97);"></path><path d="M31.8,97.69c-.77-.06-2.65.06-3,1.69-.29,1.34,1.07,1.46,1.51.72.28-.47.12-1.41,1-1.61s1.3-.39,1.2-.57S32.41,97.74,31.8,97.69Z" fill="#616161" style="fill: rgb(97, 97, 97);"></path><path d="M33.08,97.64a8.44,8.44,0,0,1-2.71-.87,7.18,7.18,0,0,1-3.1-2.48c-.56-1,.36-2.26,1.46-.72a9.55,9.55,0,0,0,4.38,3.64C33.52,97.39,33.52,97.69,33.08,97.64Z" fill="#616161" style="fill: rgb(97, 97, 97);"></path><path d="M38.39,97.86a1.26,1.26,0,1,0-.6,1.81A1.36,1.36,0,0,0,38.39,97.86Z" fill="#616161" style="fill: rgb(97, 97, 97);"></path><path d="M33.08,96.57c.27,0-.75-1.12-.42-1.83s1.09-.91.88-1.54-1.84-.51-2.09.94A2,2,0,0,0,33.08,96.57Z" fill="#616161" style="fill: rgb(97, 97, 97);"></path><path d="M32.26,99.19c0,.25.66,1,2,.77s1.07-.76,1-1.39-.06-1.37.44-1.58-.44-1.58-1.14-1.66-1.29,0-1.17.45.85.48.94.9c.12.58,0,1.89-.69,1.94S32.31,98.38,32.26,99.19Z" fill="#616161" style="fill: rgb(97, 97, 97);"></path><path d="M39.09,98.11c.61.59,2.61,0,4.85-3.91s3.87-8,7.58-8.66a9,9,0,0,1,5.95.62,20.74,20.74,0,0,0-4,.21,8,8,0,0,0-7.07,7.83c-.29,5.41,2.58,6.54,4,6,.56-.2-.17-.58-.63-.63s-.79-1.2-.42-1.54-.25-1.7-1-2.5-.84-3.62.49-5.41A5.83,5.83,0,0,1,51.47,88s-2.74,2.45-2,5.37S51,96.82,52,96.66s-.25-1-.34-1.25.54-.5.29-1-1.08-.58-.45-1,.62.17,1,.17.29-.63.25-1.08a7.44,7.44,0,0,0-.67-2.46,1.89,1.89,0,0,1,1.5-2.88c1.79-.12,3.87.42,4.91-.33a3.71,3.71,0,0,1,2.25,2.58,2.11,2.11,0,0,0-2,.13c-1.29.62-1.21,1.79-.75,2s.62-1.29,1.5-1.21a2.39,2.39,0,0,1,1.83.83c.2.42,1,.71.75-.91s-.63-3.58-3.33-4.62-3.71-1.21-4.58-1.21-1.42-.79-3.29-.67c-1.29.09-2.74.38-5.87,2,0,0,.75-1,0-1.25a5.66,5.66,0,0,0-2.79,0c-1,.25-3,.83-2.46,2.33,0,0,.83.58,1.42.33s1.16-.79,2.08-.5a.91.91,0,0,1-.42,1.09,16,16,0,0,0-2.29,1,2.13,2.13,0,0,0-.83,1.37,2.79,2.79,0,0,1-1.5.13c-.83-.17-1.33.83.46.87s2.83-.58,4.37-2,5.58-4.33,6.91-4.71a2.83,2.83,0,0,1,2.24.25s-1.28,0-4.07,2-3.17,4.16-4,5a8,8,0,0,1-4,2,4.13,4.13,0,0,1-3.08-1c-.88-.63-2.91-.68-.88.87s6,1.17,7.74-.87c0,0-1.75,3.35-3.74,3.91C39.2,96.82,38.59,97.63,39.09,98.11Z" fill="#616161" style="fill: rgb(97, 97, 97);"></path><path d="M77.08,97H76s.26-1.36.46-2a41.37,41.37,0,0,0,0-5,1.82,1.82,0,0,0-1.36.19,6,6,0,0,1-.89,4.9c-1.66,2-2.45,1.93-3.68,2s-2.35.49-1.46,1.06,1.63.89,1,1.36-1.59.39-2.19.89-.36.86-.82.93-1.23-1.06-.24-1.89.53-1.62.11-1.59-1.37,1.12-1.5,2.22a2.5,2.5,0,0,1-2,1.82c-.49,0-.78-.44,0-1.69.89-1.42,1.82-2.05,1.59-2.45s-.36-.63-2.18-.3-3.15.9-2.75,2.32,1-.5,1.88.13-.16,2.72-1.85,2.13a2.54,2.54,0,0,1-.89-4.18,5.29,5.29,0,0,1,3.87-1.13c.89,0,1.22-.4.73-.79a4.76,4.76,0,0,0-2.59-.7c-1.19-.06-1.78-1-.16-1.46s2.35-.33,3.08.8,1.59,2.15,2.22,1.65.17-.72-.43-1.52-.2-1.39,1-1.29a1.75,1.75,0,0,0,1.71-.53c.27-.23,1.23,0,.93,1s-1.22,2-1.22,2.42.36.53,1.62.33,4.08-1.92,4.27-3.61a6.11,6.11,0,0,0-.13-2.59s-2.46.66-2.58,2.19c-.09,1.13.2,1.29.56,1.59s-1.42,1.11-1.61-1.09c-.12-1.44,1.42-3,3.43-3.41a1.91,1.91,0,0,0-1.69-1.43c-1.32,0-2.15.5-2.35,1.69s-1.59,1.39-1.26-.2,1.56-1.69,2.26-2,.79-.73.19-.73a4.7,4.7,0,0,0-2.85.27c-1,.63-2.12,2.15-1.88,3.34s-2.22,1-1.83-1A4.45,4.45,0,0,1,69,86.28c2.38-.17,4,.29,5.86,3.14A10.3,10.3,0,0,1,77,89.29Z" fill="#616161" style="fill: rgb(97, 97, 97);"></path><path d="M76.93,88.19s-1-.13-.88-1.89l-.94,0s-.42.78-1,.83-1.22-.69-1.14-2-.28-2,.34-2,.77.55,1.38,1.16.5.86,1.81.86v-1c0-.19-.78-.72-1-1.38-.23-.94.22-2.31,1.33-2.31Z" fill="#616161" style="fill: rgb(97, 97, 97);"></path><path d="M137.92,78.7c.05,2,2.32,3,3.55,1.13a1.45,1.45,0,0,1,2.38.11c.6.87,1.09,2-.31,3.89a2.69,2.69,0,0,0,2.87-1.74c1-2.07-1.32-3.13-2.64-3.32s-1.39-.23-1.39-.45,1-.31,2.3,0,2-1.25,1.13-1.62c-.7-.31-1.08,0-1.67.33-.38.24-1.11.73-1.59.56s-.08-.43.15-.63a4.91,4.91,0,0,0,1.2-1.12c.41-.72.4-2.09-.47-2.47-.6-.26-1.81,0-1.77.27s.57.45.91.75a1.18,1.18,0,0,1,.18,1.74c-.64.75-1.43.87-1.73.45S137.85,75.22,137.92,78.7Z" fill="#616161" style="fill: rgb(97, 97, 97);"></path><path d="M135.58,81.46A1.56,1.56,0,0,1,134.1,80a2.11,2.11,0,0,1,.75-1.87c.63-.36,1.35.2,1.67.68a1.89,1.89,0,0,1,.28,1.81A1.38,1.38,0,0,1,135.58,81.46Z" fill="#616161" style="fill: rgb(97, 97, 97);"></path><path d="M126.64,86.38c-.35-.32.35-1,1.11-2.24a15,15,0,0,1,3.59-3.73c1.11-.73,2.81-.11,1.89,1.08-1,1.35-2.85,1.1-4.13,2.38S126.82,86.54,126.64,86.38Z" fill="#616161" style="fill: rgb(97, 97, 97);"></path><path d="M131.77,88.62c-.33,0,.58-.51,1.1-1.24s-.37-2.22-1.58-1.87-3,1.76-5.29,3.57-4.3,2.92-7.13,2-2.14-2.84-1.44-3.44,2.11-.51,2.22.65-.76.89-1.32,1.11.46,1.13,1.8,1.08A7.44,7.44,0,0,0,124,89.27,3.34,3.34,0,0,0,125.14,86c-.21-1.67-.16-2.46-.79-2.29s-.16,1.16-1,1.2-1,0-1.08.34-.08,1.21.17,1.25.41.37.62.37a1.12,1.12,0,0,1-1.41-.37c-.75-.79-.21-1.21,0-1.5,0,0-1.17-.54-1.21-.92s.87-1.29,1.41-1.41a4,4,0,0,1,1.09-.09.58.58,0,0,0-.55-.66A2,2,0,0,1,120.69,80c0-1.16.92-1.29,1-1.62s1-1.38,1.74-.71-.41.42-1,.58-.38.71.08,1,2.12.29,2.5,1.17.87.12.87-.38.88-1,1.37-1.16.55-.38.09-1.29.16-.8.58-.5.58,1.21,1,1.5a1.44,1.44,0,0,1,0,2.2,7.93,7.93,0,0,1-2.62,1.2c-.39.22,0,1.27,0,2.11a8.85,8.85,0,0,1-.44,1.77c0,.34.77.5.44,1.72l3.33-2.94A5.9,5.9,0,0,1,133.09,83c1.5-.16,3.16.34,2.17.72a3.4,3.4,0,0,0-1.12.55,2.24,2.24,0,0,1,1.43.4,1.85,1.85,0,0,1,.63,2.11c-.27,1.07.05-1.06-1.72-.67C134.48,86.15,134.89,88.7,131.77,88.62Z" fill="#616161" style="fill: rgb(97, 97, 97);"></path><path d="M122.65,97.69c.77-.06,2.65.06,3,1.69.28,1.34-1.07,1.46-1.51.72-.28-.47-.12-1.41-1-1.61s-1.3-.39-1.2-.57S122,97.74,122.65,97.69Z" fill="#616161" style="fill: rgb(97, 97, 97);"></path><path d="M120.69,97.64a8.37,8.37,0,0,0,2.71-.87,7.12,7.12,0,0,0,3.1-2.48c.56-1-.36-2.26-1.46-.72a9.55,9.55,0,0,1-4.38,3.64C120.25,97.39,120.25,97.69,120.69,97.64Z" fill="#616161" style="fill: rgb(97, 97, 97);"></path><path d="M115.38,97.86a1.26,1.26,0,1,1,.6,1.81A1.36,1.36,0,0,1,115.38,97.86Z" fill="#616161" style="fill: rgb(97, 97, 97);"></path><path d="M120.69,96.57c-.27,0,.75-1.12.42-1.83s-1.08-.91-.88-1.54,1.84-.51,2.09.94A2,2,0,0,1,120.69,96.57Z" fill="#616161" style="fill: rgb(97, 97, 97);"></path><path d="M121.51,99.19c0,.25-.66,1-2,.77s-1.08-.76-1-1.39.06-1.37-.44-1.58.44-1.58,1.14-1.66,1.29,0,1.17.45-.85.48-.94.9c-.12.58,0,1.89.69,1.94S121.46,98.38,121.51,99.19Z" fill="#616161" style="fill: rgb(97, 97, 97);"></path><path d="M114.68,98.11c-.61.59-2.6,0-4.85-3.91s-3.87-8-7.58-8.66a9,9,0,0,0-6,.62,20.74,20.74,0,0,1,4,.21,8,8,0,0,1,7.07,7.83c.29,5.41-2.58,6.54-4,6-.57-.2.16-.58.62-.63s.79-1.2.42-1.54.25-1.7,1-2.5.84-3.62-.49-5.41A5.83,5.83,0,0,0,102.3,88s2.74,2.45,2,5.37-1.54,3.45-2.59,3.29.25-1,.34-1.25-.54-.5-.29-1,1.08-.58.45-1-.62.17-1,.17-.3-.63-.26-1.08a7.44,7.44,0,0,1,.67-2.46,1.89,1.89,0,0,0-1.5-2.88c-1.79-.12-3.87.42-4.91-.33A3.73,3.73,0,0,0,93,89.45a2.11,2.11,0,0,1,2,.13c1.29.62,1.21,1.79.75,2s-.62-1.29-1.49-1.21a2.4,2.4,0,0,0-1.84.83c-.2.42-1,.71-.74-.91s.62-3.58,3.32-4.62,3.71-1.21,4.58-1.21,1.42-.79,3.29-.67c1.29.09,2.75.38,5.87,2,0,0-.75-1,0-1.25a5.67,5.67,0,0,1,2.79,0c1,.25,3,.83,2.46,2.33,0,0-.83.58-1.42.33s-1.16-.79-2.08-.5a.91.91,0,0,0,.42,1.09,16,16,0,0,1,2.29,1,2.13,2.13,0,0,1,.83,1.37,2.79,2.79,0,0,0,1.5.13c.83-.17,1.33.83-.46.87s-2.83-.58-4.37-2-5.57-4.33-6.91-4.71a2.86,2.86,0,0,0-2.25.25s1.3,0,4.09,2,3.16,4.16,4,5a8,8,0,0,0,4,2,4.13,4.13,0,0,0,3.08-1c.88-.63,2.91-.68.88.87s-6,1.17-7.74-.87c0,0,1.75,3.35,3.74,3.91C114.57,96.82,115.18,97.63,114.68,98.11Z" fill="#616161" style="fill: rgb(97, 97, 97);"></path><path d="M76.69,97h1s-.26-1.36-.46-2a41.37,41.37,0,0,1,0-5,1.82,1.82,0,0,1,1.36.19,6,6,0,0,0,.89,4.9c1.66,2,2.45,1.93,3.68,2s2.35.49,1.45,1.06-1.62.89-1,1.36,1.59.39,2.19.89.36.86.83.93,1.22-1.06.23-1.89-.53-1.62-.1-1.59,1.36,1.12,1.49,2.22a2.5,2.5,0,0,0,2,1.82c.49,0,.78-.44,0-1.69-.89-1.42-1.82-2.05-1.59-2.45s.36-.63,2.18-.3,3.15.9,2.75,2.32-1-.5-1.88.13.16,2.72,1.85,2.13a2.54,2.54,0,0,0,.89-4.18,5.29,5.29,0,0,0-3.87-1.13c-.89,0-1.22-.4-.73-.79a4.76,4.76,0,0,1,2.59-.7c1.19-.06,1.78-1,.16-1.46s-2.35-.33-3.08.8S88,96.78,87.37,96.28s-.17-.72.43-1.52.2-1.39-1-1.29a1.77,1.77,0,0,1-1.72-.53c-.27-.23-1.23,0-.93,1s1.22,2,1.22,2.42-.36.53-1.62.33-4.08-1.92-4.27-3.61a6.11,6.11,0,0,1,.13-2.59s2.46.66,2.58,2.19c.09,1.13-.2,1.29-.56,1.59s1.42,1.11,1.61-1.09c.12-1.44-1.42-3-3.43-3.41a1.91,1.91,0,0,1,1.69-1.43c1.32,0,2.15.5,2.35,1.69s1.59,1.39,1.26-.2-1.56-1.69-2.25-2-.8-.73-.2-.73a4.7,4.7,0,0,1,2.85.27c1,.63,2.12,2.15,1.88,3.34s2.22,1,1.83-1a4.45,4.45,0,0,0-4.41-3.44c-2.39-.17-4,.29-5.86,3.14a10.3,10.3,0,0,0-2.22-.13Z" fill="#616161" style="fill: rgb(97, 97, 97);"></path><path d="M76.84,88.19s1-.13.88-1.89l.94,0s.42.78,1,.83,1.22-.69,1.14-2,.28-2-.34-2-.77.55-1.38,1.16-.5.86-1.81.86v-1c0-.19.78-.72,1-1.38.24-.94-.23-2.31-1.34-2.31Z" fill="#616161" style="fill: rgb(97, 97, 97);"></path><path d="M58.11,76.53c.29,0-.51.44-1,1.08a1.19,1.19,0,0,0,1.39,1.65c1.07-.31,2.61-1.55,4.65-3.14s3.78-2.56,6.27-1.71,1.88,2.5,1.26,3-1.85.45-2-.57.67-.79,1.17-1-.41-1-1.59-.95A6.51,6.51,0,0,0,65,76a2.91,2.91,0,0,0-1,2.91c.19,1.46.15,2.16.7,2s.15-1,.91-1.06.92,0,1-.29.08-1.07-.14-1.1-.37-.33-.55-.33a1,1,0,0,1,1.24.33c.66.69.19,1.06,0,1.32,0,0,1,.47,1.07.8s-.77,1.14-1.25,1.25a3.48,3.48,0,0,1-1,.07.52.52,0,0,0,.48.59,1.73,1.73,0,0,1,1.46,1.64c0,1-.81,1.14-.84,1.43s-.85,1.21-1.54.62.37-.36.84-.51.33-.62-.07-.88-1.87-.25-2.2-1-.77-.11-.77.33-.77.88-1.2,1-.48.33-.08,1.14-.14.69-.51.44-.51-1.07-.88-1.32a1.27,1.27,0,0,1,0-1.94,7,7,0,0,1,2.3-1c.35-.2,0-1.13,0-1.86a7.78,7.78,0,0,1,.39-1.56c0-.29-.69-.44-.39-1.51L60,80a5.16,5.16,0,0,1-3,1.42c-1.31.15-2.78-.29-1.9-.63s1-.48,1-.48A1.94,1.94,0,0,1,54.78,80a1.6,1.6,0,0,1-.56-1.85c.23-.94,0,.93,1.52.59C55.74,78.7,55.37,76.45,58.11,76.53Z" fill="#616161" style="fill: rgb(97, 97, 97);"></path><path d="M95.66,76.53c-.29,0,.51.44,1,1.08s-.33,2-1.4,1.65-2.61-1.55-4.65-3.14-3.78-2.56-6.27-1.71-1.87,2.5-1.26,3,1.86.45,2-.57-.66-.79-1.16-1,.4-1,1.59-.95a6.44,6.44,0,0,1,3.39,1,2.91,2.91,0,0,1,1,2.91c-.18,1.46-.14,2.16-.69,2s-.15-1-.92-1.06-.91,0-1-.29-.07-1.07.15-1.1.36-.33.55-.33a1,1,0,0,0-1.25.33c-.66.69-.18,1.06,0,1.32,0,0-1,.47-1.06.8s.77,1.14,1.24,1.25a3.49,3.49,0,0,0,.95.07.51.51,0,0,1-.47.59,1.72,1.72,0,0,0-1.46,1.64c0,1,.8,1.14.84,1.43s.84,1.21,1.53.62-.36-.36-.84-.51-.33-.62.08-.88,1.86-.25,2.19-1,.77-.11.77.33.77.88,1.21,1,.48.33.07,1.14.15.69.51.44.52-1.07.88-1.32a1.27,1.27,0,0,0,0-1.94,7,7,0,0,0-2.31-1c-.34-.2.05-1.13.05-1.86a7.78,7.78,0,0,0-.39-1.56c0-.29.68-.44.39-1.51L93.8,80a5.1,5.1,0,0,0,3,1.42c1.32.15,2.78-.29,1.9-.63s-1-.48-1-.48A2,2,0,0,0,99,80a1.6,1.6,0,0,0,.55-1.85c-.23-.94,0,.93-1.51.59C98,78.7,98.41,76.45,95.66,76.53Z" fill="#616161" style="fill: rgb(97, 97, 97);"></path><path d="M44.26,80.81c.33.77,2.4,1,6-1.73,1.49-1.13,2.91-2.37,4.47-3.41a8.85,8.85,0,0,1,4.53-1.74,5.26,5.26,0,0,1,1.19.09c.26,0,.71,0,.56-.38s-1-.34-1.36-.32a15.47,15.47,0,0,0-2.53.39c-3.34.76-4.53,2.61-5.6,3a8,8,0,0,1-4.47.33A4.15,4.15,0,0,1,44.57,75c-.56-.92-2.42-1.76-1.14.46s5.07,3.4,7.47,2.2c0,0-2.92,2.41-5,2.16C44.85,79.66,44,80.17,44.26,80.81Z" fill="#616161" style="fill: rgb(97, 97, 97);"></path><path d="M109.61,80.81c-.33.77-2.4,1-6-1.73-1.49-1.13-2.91-2.37-4.47-3.41a8.85,8.85,0,0,0-4.53-1.74,5.26,5.26,0,0,0-1.19.09c-.26,0-.71,0-.56-.38s1-.34,1.36-.32a15.35,15.35,0,0,1,2.52.39c3.35.76,4.53,2.61,5.61,3a8,8,0,0,0,4.47.33A4.18,4.18,0,0,0,109.3,75c.56-.92,2.42-1.76,1.14.46s-5.07,3.4-7.47,2.2c0,0,2.92,2.41,5,2.16C109,79.66,109.88,80.17,109.61,80.81Z" fill="#616161" style="fill: rgb(97, 97, 97);"></path><path d="M73.09,80.83c-1.82.8-2.58.51-3.07-.24s.93-.52,1.14-.6,0-.73.54-.88,1.16.4,1-.31-.55-.35-.83-.66.27-.64.63-.91a7.18,7.18,0,0,1,2.26-1.17,2.06,2.06,0,0,0,1.29-1c.16-.33.31-1.26.89-1.08s-.13,1.22-.21,1.61,0,.52-.1.78a5.38,5.38,0,0,1-2.47,3.94C73.78,80.5,73.42,80.68,73.09,80.83Z" fill="#616161" style="fill: rgb(97, 97, 97);"></path><path d="M80.83,80.83c1.83.8,2.59.51,3.08-.24s-.94-.52-1.15-.6,0-.73-.54-.88-1.16.4-1-.31.54-.35.82-.66-.26-.64-.63-.91a7.18,7.18,0,0,0-2.26-1.17,2.06,2.06,0,0,1-1.29-1c-.15-.33-.3-1.26-.89-1.08s.14,1.22.21,1.61.06.52.1.78a5.44,5.44,0,0,0,2.47,3.94C80.14,80.5,80.51,80.68,80.83,80.83Z" fill="#616161" style="fill: rgb(97, 97, 97);"></path></g></g></g></g></svg>