<svg xmlns="http://www.w3.org/2000/svg" version="1.1" xmlns:xlink="http://www.w3.org/1999/xlink" xmlns:svgjs="http://svgjs.com/svgjs" height="130" width="255.76171875"><defs id="SvgjsDefs1044"></defs><g id="SvgjsG1045" rel="mainfill" name="main_text" xmlns:name="main_text" transform="translate(0,-110.44921875)" fill="#000000"><path d="M0 199.22L16.97 199.22Q17.12 199.45 17.15 199.76L17.15 201.58L15.60 201.62L14.45 201.83L13.59 202.28L13.20 202.62L12.95 203.03L12.54 204.64L12.34 206.45L12.43 212.35L12.95 212.17L14.70 211.90L15.36 211.90L17.10 212.17L18.58 212.71L19.01 213.01L18.83 213.67L17.51 213.10L16.44 212.80L14.79 212.62L13.99 212.71L12.91 212.96L12.43 213.17L12.38 218.54L12.45 219.13L13.45 219.47L14.74 219.54L15.31 219.47L18.37 218.48L24.84 215.46L26.38 214.96L26.95 214.87L28.24 214.96L28.81 215.07L29.80 215.41L31.10 216.18L31.80 216.82L32.53 217.89L32.62 217.11L32.53 205.68L32.37 204.48L31.91 202.94L31.62 202.53L30.80 201.99L29.71 201.71L27.90 201.53L27.90 199.22L44.96 199.22L44.96 201.58L43.00 201.67L42.46 201.78L41.53 202.24L41.19 202.53L40.90 202.94L40.69 203.44L40.44 204.53L40.24 206.34L40.24 233.17L40.74 236.08L41.28 236.85L42.10 237.39L42.60 237.55L43.19 237.64L44.96 237.73L44.96 239.95L44.80 240L27.94 240L27.90 237.73L28.99 237.69L30.10 237.48L31.10 237.10L31.80 236.48L32.16 235.49L32.62 231.97L32.62 221.74L32.07 222.54L31.05 223.51L29.96 224.24L29.76 223.69L30.67 222.99L31.35 222.33L31.60 221.90L31.75 221.38L31.62 220.83L31.26 220.54L30.76 220.38L30.14 220.29L29.51 220.33L20.23 223.94L18.55 224.24L16.65 224.10L15.02 223.69L13.61 223.03L12.43 222.19L12.29 232.17L12.54 234.67L12.84 235.74L13.29 236.60L13.61 236.94L14.54 237.39L15.65 237.64L17.15 237.73L17.15 240L0 240L0 237.85L0.54 237.69L1.11 237.69L2.81 237.28L3.65 236.73L4.17 235.89L4.51 234.90L4.72 232.42L4.60 205.48L4.26 203.73L3.86 202.82L3.52 202.44L3.11 202.19L2.15 201.78L0 201.58L0 199.22ZM72.47 224.51L60.70 224.51L58.16 231.20Q58.11 231.27 58.08 231.36Q58.04 231.45 58.04 231.59Q57.79 232.13 57.54 232.79Q57.29 233.44 57.23 234.06Q57.18 234.31 57.15 234.56Q57.11 234.81 57.11 235.06Q57.11 236.60 58.13 237.06Q59.15 237.53 60.40 237.60Q60.58 237.64 60.71 237.64Q60.83 237.64 61.01 237.64Q61.13 237.64 61.25 237.68Q61.38 237.71 61.51 237.71L61.51 240Q59.58 239.82 57.67 239.75Q55.75 239.68 53.82 239.68Q52.10 239.68 50.33 239.75Q48.56 239.82 46.91 240L46.84 237.71Q47.70 237.64 48.54 237.46Q49.38 237.28 50.06 236.67Q50.53 236.21 51.07 235.44Q51.60 234.67 52.15 233.67Q52.64 232.76 53.11 231.73Q53.57 230.70 54.01 229.66Q54.82 227.80 55.50 226.10Q56.18 224.40 56.61 223.33L61.81 210.76Q62.99 208.04 64.04 205.25Q65.10 202.46 66.09 199.67L71.22 197.45Q72.22 200.67 73.27 203.89Q74.33 207.11 75.37 210.33L80.59 225.51Q80.88 226.50 81.29 227.87Q81.70 229.23 82.20 230.70Q83.06 233.24 84.51 235.44Q85.96 237.64 88.39 237.71L88.39 240Q87.32 239.93 86.30 239.88Q85.28 239.82 84.24 239.75Q83.17 239.75 82.15 239.72Q81.13 239.68 80.09 239.68Q78.98 239.68 77.85 239.72Q76.73 239.75 75.69 239.75Q74.58 239.82 73.47 239.88Q72.35 239.93 71.22 240L71.22 237.71Q71.47 237.71 71.72 237.71Q71.97 237.71 72.22 237.71Q73.40 237.64 74.36 237.18Q75.33 236.71 75.33 235.28Q75.33 234.31 75.08 233.31Q74.83 232.31 74.58 231.38Q74.51 231.15 74.45 230.93Q74.40 230.70 74.33 230.52L72.47 224.51L72.47 224.51M71.22 221.17L67.14 207.54L61.94 221.17L71.22 221.17L71.22 221.17ZM92.34 199.22L93.97 199.22L94.63 199.38L95.15 199.67L95.76 199.88L99.25 200.31L116.54 200.31L119.46 199.90L120.08 199.74L121.19 199.26L123.14 199.22L126.13 209.45L123.77 209.49Q123.48 209.43 123.32 209.13L123.14 208.56L121.71 205.95L120.24 204.25L119.80 203.89L118.78 203.28L117.60 202.87L116.27 202.62L111.50 202.55L111.55 233.58L111.75 235.01L112.12 236.21L112.41 236.71L112.86 237.07L113.39 237.37L114.63 237.69L116.15 237.80L116.18 240L99.30 240L99.32 237.78L100.50 237.73L101.84 237.44L102.41 237.19L102.86 236.87L103.22 236.42L103.47 235.89L103.79 234.65L103.97 233.17L103.97 202.55L99.66 202.60L98.14 202.82L96.94 203.21L95.88 203.73L94.63 204.87L92.99 207.22L92.02 209.45L89.34 209.49L92.34 199.22ZM153.44 224.51L141.67 224.51L139.13 231.20Q139.08 231.27 139.05 231.36Q139.02 231.45 139.02 231.59Q138.77 232.13 138.52 232.79Q138.27 233.44 138.20 234.06Q138.15 234.31 138.12 234.56Q138.09 234.81 138.09 235.06Q138.09 236.60 139.11 237.06Q140.13 237.53 141.37 237.60Q141.56 237.64 141.68 237.64Q141.81 237.64 141.99 237.64Q142.10 237.64 142.23 237.68Q142.35 237.71 142.49 237.71L142.49 240Q140.56 239.82 138.64 239.75Q136.73 239.68 134.80 239.68Q133.07 239.68 131.30 239.75Q129.54 239.82 127.88 240L127.81 237.71Q128.67 237.64 129.51 237.46Q130.35 237.28 131.03 236.67Q131.51 236.21 132.04 235.44Q132.57 234.67 133.12 233.67Q133.62 232.76 134.08 231.73Q134.55 230.70 134.98 229.66Q135.80 227.80 136.48 226.10Q137.16 224.40 137.59 223.33L142.78 210.76Q143.96 208.04 145.02 205.25Q146.07 202.46 147.07 199.67L152.19 197.45Q153.19 200.67 154.25 203.89Q155.30 207.11 156.34 210.33L161.56 225.51Q161.86 226.50 162.26 227.87Q162.67 229.23 163.17 230.70Q164.03 233.24 165.49 235.44Q166.94 237.64 169.36 237.71L169.36 240Q168.30 239.93 167.28 239.88Q166.26 239.82 165.21 239.75Q164.15 239.75 163.13 239.72Q162.11 239.68 161.06 239.68Q159.95 239.68 158.83 239.72Q157.71 239.75 156.66 239.75Q155.55 239.82 154.44 239.88Q153.33 239.93 152.19 240L152.19 237.71Q152.44 237.71 152.69 237.71Q152.94 237.71 153.19 237.71Q154.37 237.64 155.34 237.18Q156.30 236.71 156.30 235.28Q156.30 234.31 156.05 233.31Q155.80 232.31 155.55 231.38Q155.48 231.15 155.43 230.93Q155.37 230.70 155.30 230.52L153.44 224.51L153.44 224.51M152.19 221.17L148.11 207.54L142.92 221.17L152.19 221.17L152.19 221.17ZM191.34 198.20L206.20 201.37L207.31 201.37L208.65 201.10L208.94 200.85L209.01 200.53L208.81 200.08L208.54 199.79L206.36 198.70L206.61 198.20L208.40 198.92L209.42 199.54L210.24 200.35L210.64 201.06L210.74 201.55L210.58 202.48L210.21 203.21L209.40 204.03L208.38 204.64L207.17 205.14L205.93 205.46L205.79 205.91L205.68 233.06L205.99 235.42L206.29 236.23L206.74 236.89L207.06 237.14L208.20 237.60L210.21 237.80L210.21 239.95L209.83 240L193.79 240L193.70 239.50L193.70 237.87L194.16 237.75L195.18 237.66L196.08 237.46L196.81 237.14L197.15 236.89L197.38 236.62L198.03 235.06L198.19 233.58L198.24 207.95L197.83 205.05L197.56 204.82L192.48 203.30L192.16 203.41L191.71 204.03L191.39 204.84L191.18 206.27L191.14 218.25L190.68 222.19L189.41 226.41L185.72 232.54L181.95 236.44L179.82 238.16L178.80 238.78L177.26 239.43L175.53 239.89L174.56 240L172.45 240L171.13 239.68L170.82 239.48L170.52 239.18L170.36 238.82L170.32 238.46L171.90 234.94L172.61 233.99L173.49 233.26L173.99 233.17L174.85 233.38L177.35 234.24L178.32 234.33L179.80 234.17L180.57 233.83L181.23 233.42L182.00 232.54L182.88 230.70L183.47 228.57L183.79 218.50L183.70 218.04L183.70 208.15L183.34 208.00L181.63 207.50L180.57 206.93L179.71 206.16L179.30 205.46L179.09 204.57L179.09 204.03L179.19 203.55L179.46 202.73L179.87 202.03L180.98 200.96L183.38 199.54L187.21 198.49L191.34 198.20M181.39 202.89L180.77 203.30L180.32 203.87L180.21 204.73L180.41 205.50L180.84 206.11L182.04 206.88L183.59 207.38L183.70 207.27L183.54 205.71L183.09 204.16L182.68 203.55L182.11 203.14Q181.79 202.98 181.39 202.89ZM255.76 201.71L253.90 201.96L252.95 202.24L252.08 202.71L251.49 203.37L251.29 203.82L250.97 205.39L250.88 207.81L251.09 234.37L251.34 235.37L251.79 236.23L252.38 236.89L253.20 237.35L254.19 237.60L255.76 237.73L255.76 239.91L255.67 240.02L254.10 239.91L242.22 240.02L242.22 238.25L242.29 237.73L245.39 236.98L245.71 236.69L246.01 236.33L246.35 235.42L246.66 233.81L247.16 207.41L218.90 240.16L218.58 240.45L216.07 240.45Q215.77 240.43 215.57 240.27L215.23 205.59L214.95 203.94L214.77 203.48L214.27 202.71L213.62 202.12L213.21 201.92L212.66 201.78L210.69 201.71L210.69 199.92L210.78 199.35L224.03 199.35L224.21 199.40L224.21 201.71L222.30 201.92L221.35 202.24L220.56 202.73L220.03 203.48L219.65 204.39L219.33 205.95L219.20 227.48L219.29 227.93L243.85 199.65L244.19 199.35L244.78 199.45L255.76 199.35L255.76 201.71Z" fill="#000000" style="fill: rgb(0, 0, 0);"></path></g><g id="SvgjsG1046" rel="mainfill" name="symbol" xmlns:name="symbol_mainfill" transform="translate(87.45273437499999,-4) scale(0.8)" fill="#010000"><path fill="#010000" d="M86.658,45.294c-2.596-11.405-7.506-21.703-16.644-29.677C59.895,6.787,48.228,2.422,34.426,6.596  C23.687,9.844,14.885,19.818,17.349,32.71c0.932,4.878,2.542,9.635,3.604,14.495c1.098,5.03,0.812,9.853-2.863,14.126  c-2.105,2.447-11.245,23.819-0.21,30.348c-0.77-18.918,7.032-23.655,14.369-24.814c3.087-0.488,6.223-0.744,9.189-1.824  c1.779-0.648,3.298-1.613,3.832-3.38c1.545-5.111,6.696-7.788,8.719-12.551c2.982,11.79,7.063,14.224,15.394,21.012  c15.322,12.482,3.194,27.591,6.438,23.033c2.864-4.026,3.986-8.487,3.386-13.398c-0.729-5.959-3.563-10.99-7.071-15.785  c-4.001-5.469-15.414-15.441-15.415-15.443c-0.343,0.244-0.624,0.057-0.891-0.139c-0.02-0.015,0.722-0.182,0.891,0.139  c0.004-0.003,0.007-0.002,0.011-0.005c-0.002,0.005-0.001,0.009-0.002,0.014c0.45,0.297,13.162,10.026,17.341,16.155  c6.288,9.22,9.093,18.902,3.26,29.398c-0.059,0.107,0.077,0.314,0.248,0.909c2.918-3.421,4.979-6.993,6.529-10.824  C89.238,71.478,89.662,58.492,86.658,45.294z M52.865,48.795c-3.021,3.313-6.23,6.32-10.432,8.229  c-4.773,2.168-7.544,1.262-10.008-3.14c-0.936-1.671-2.095-3.226-3.086-4.87c-1.214-2.015-1.825-4.165-1.223-6.496  c0.507-1.967-0.095-3.688-0.988-5.46c-2.406-4.773-1.276-11.291,2.677-15.563c2.506,12.21,12.09,18.375,22.302,23.931  C54.017,46.465,54.481,47.021,52.865,48.795z" style="fill: rgb(1, 0, 0);"></path></g></svg>