<svg xmlns="http://www.w3.org/2000/svg" version="1.1" xmlns:xlink="http://www.w3.org/1999/xlink" xmlns:svgjs="http://svgjs.com/svgjs" height="121.4375" width="252.54296875"><defs id="SvgjsDefs4914"></defs><g id="SvgjsG4915" rel="mainfill" name="main_text" xmlns:name="main_text" transform="translate(-5.37890625,-118.94140625)" fill="#ffffff"><path d="M40.44 235.54C40.44 239.62 41.82 240.31 43.44 240.31C44.90 240.31 47.28 240 48.97 239.23C47.82 238.31 47.66 236.46 47.66 233.39L47.66 196.56C47.66 192.95 47.51 189.18 47.13 185.96C44.20 185.96 41.21 186.34 39.90 186.65C40.36 191.03 40.44 193.87 40.44 197.72L40.44 210.48L13.38 210.48L13.38 196.56C13.38 192.95 13.22 189.18 12.84 185.96C9.76 185.96 6.69 186.34 5.38 186.65C6.00 191.03 6.15 193.87 6.15 197.72L6.15 235.54C6.15 239.62 7.46 240.31 9.07 240.31C10.38 240.31 12.61 240 14.22 239.23C13.45 238.31 13.38 236.46 13.38 233.39L13.38 214.71L40.44 214.71ZM81.64 235.54C81.64 239.62 83.03 240.31 84.64 240.31C86.10 240.31 88.33 240 90.02 239.23C88.87 238.31 88.72 236.46 88.72 233.39L88.72 214.25C88.72 207.48 82.95 202.71 74.26 202.71C64.42 202.71 59.20 207.56 59.20 210.63C59.20 212.86 61.19 213.78 64.73 213.78C64.73 210.33 68.34 206.94 73.26 206.94C78.18 206.94 81.64 210.02 81.64 214.63L81.64 217.78C67.65 218.94 58.04 222.78 58.04 230.93C58.04 236.62 62.58 240.38 69.04 240.38C75.96 240.38 80.03 235.69 81.64 231.24ZM81.64 224.24C81.64 229.31 77.26 236.00 71.34 236.00C67.73 236.00 65.04 233.77 65.04 230.31C65.04 224.39 72.11 222.09 81.64 221.24ZM126.54 207.17C130.54 207.17 131.23 206.40 131.23 205.41C131.23 204.56 131.00 203.56 130.23 202.41C129.31 202.95 127.39 203.10 124.23 203.10L107.86 203.10C104.17 203.10 100.33 203.18 97.02 203.41C97.02 205.10 97.40 206.87 97.79 207.94C102.17 207.33 105.09 207.17 109.01 207.17L110.47 207.17C110.70 209.79 110.78 211.94 110.78 214.63L110.78 235.54C110.78 239.62 112.16 240.31 113.78 240.31C115.16 240.31 117.39 240 119.08 239.23C118.01 238.31 117.85 236.46 117.85 233.39L117.85 213.48C117.85 211.32 117.78 209.25 117.70 207.17ZM161.29 235.54C161.29 239.62 162.67 240.31 164.29 240.31C165.75 240.31 167.98 240 169.67 239.23C168.52 238.31 168.36 236.46 168.36 233.39L168.36 214.25C168.36 207.48 162.60 202.71 153.91 202.71C144.07 202.71 138.84 207.56 138.84 210.63C138.84 212.86 140.84 213.78 144.38 213.78C144.38 210.33 147.99 206.94 152.91 206.94C157.83 206.94 161.29 210.02 161.29 214.63L161.29 217.78C147.30 218.94 137.69 222.78 137.69 230.93C137.69 236.62 142.22 240.38 148.68 240.38C155.60 240.38 159.67 235.69 161.29 231.24ZM161.29 224.24C161.29 229.31 156.91 236.00 150.99 236.00C147.37 236.00 144.68 233.77 144.68 230.31C144.68 224.39 151.76 222.09 161.29 221.24ZM184.97 219.86C184.97 229.31 183.05 236.46 177.20 236.46C177.20 238.77 178.43 240.38 180.97 240.38C187.81 240.38 191.58 231.39 191.58 219.01L191.58 213.48C191.58 211.32 191.50 209.25 191.35 207.25C192.58 207.17 193.89 207.17 195.42 207.17L204.96 207.17C205.11 209.71 205.19 212.02 205.19 214.63L205.19 235.54C205.19 239.62 206.57 240.31 208.18 240.31C209.57 240.31 211.80 240 213.49 239.23C212.41 238.31 212.26 236.46 212.26 233.39L212.26 213.48C212.26 209.86 212.11 206.33 211.72 203.10L193.81 203.10C191.04 203.10 187.12 203.33 184.20 203.87C184.81 208.17 184.97 210.79 184.97 214.63ZM249.62 235.54C249.62 239.62 251.01 240.31 252.62 240.31C254.00 240.31 256.23 240 257.92 239.23C256.85 238.31 256.62 236.46 256.62 233.39L256.62 213.48C256.62 209.86 256.54 206.02 256.16 202.79C253.23 202.79 250.62 203.10 249.31 203.41L231.32 231.93L231.32 211.56C231.32 208.71 231.02 205.71 230.40 202.79C227.48 202.79 224.87 203.18 223.56 203.56C224.18 207.94 224.33 210.79 224.33 214.63L224.33 235.54C224.33 239.62 225.64 240.31 227.25 240.31C228.86 240.31 230.33 240.15 231.86 239.38L249.62 211.56Z" fill="#ffffff" style="fill: rgb(255, 255, 255);"></path></g><g id="SvgjsG4916" rel="mainfill" name="symbol" xmlns:name="symbol_mainfill" transform="translate(96.44140625,-3.8226562499999996) scale(0.6)" fill="#ffffff"><g fill="#ffffff"><path fill-rule="evenodd" clip-rule="evenodd" d="M56.17,18.878c1.777-5.175,1.354-9.062-1.434-12.506L35.684,44.755l3.953,7.487   L56.17,18.878z" fill="#ffffff" style="fill: rgb(255, 255, 255);"></path><path fill-rule="evenodd" clip-rule="evenodd" d="M24.752,71.905c-1.71-2.271-4.103-3.967-7.256-3.976   c-4.061-0.005-7.675,3.492-9.686,8.061c-2.82,6.429-2.073,11.881,1.363,15.231c4.23,4.131,9.075,0.775,13.464-4.517   c3.506-7.144,7.008-14.287,10.514-21.431l-2.279-4.606L24.752,71.905z M21.152,82.955c-2.017,4.765-6.025,7.416-8.827,6.288   c-2.801-1.128-3.802-6.27-1.875-11.067c1.936-4.809,5.72-7.421,8.521-6.294C21.772,73.01,24,76.216,21.152,82.955z" fill="#ffffff" style="fill: rgb(255, 255, 255);"></path><path fill-rule="evenodd" clip-rule="evenodd" d="M59.046,70.543c-4.896-4.042-10.217-2.481-13.018,1.847L14.601,6.424   c-2.623,2.561-3.29,6.241-2.627,10.687l19.011,39.61l4.681,3.643l12.6,27.277c1.49,2.467,3.299,4.366,5.799,5.006   c6.505,0.827,9.353-2.346,9.949-7.422C64.672,79.623,63.586,74.284,59.046,70.543z M58.102,89.516   c-2.801,1.128-6.811-1.522-8.826-6.288c-2.848-6.74-0.62-9.945,2.181-11.077c2.802-1.128,6.584,1.49,8.521,6.293   S60.902,88.388,58.102,89.516z" fill="#ffffff" style="fill: rgb(255, 255, 255);"></path><path fill-rule="evenodd" clip-rule="evenodd" d="M92.96,11.011c-0.897-3.074-2.656-3.812-4.804-3.482l-19.885,3.614   c-1.085,1.194-0.893,2.472,0.179,3.3h13.889L82.254,17.6l-13.592-0.042c-1.669,0.254-1.522,2.777-0.038,3.195l13.729,0.071   l-0.089,2.862l-13.423,0.136c-2.035,0.63-1.189,3.008,0.009,3.248l13.55,0.066l0.047,2.806l-13.69-0.004   c-1.969,0.554-1.396,3.553-0.061,3.473l13.671-0.033l-0.075,2.764l-13.507-0.009c-1.748,0.31-1.603,2.909-0.094,3.209l13.567,0.188   l-0.052,3.003l-13.05,0.015c-2.29,0.183-2.134,3.121-0.235,3.177l13.418,0.169l-0.226,2.951l-13.169,0.07   c-1.876,0.099-1.81,3.154-0.104,3.182l13.54,0.174l-0.08,3.107l-13.61,0.014c-1.701,0.315-1.42,3.172-0.033,3.257l13.709-0.071   l-0.065,2.915l-13.418-0.08c-1.701,0.475-1.508,3.036-0.127,3.257l13.427,0.217l-0.036,2.97L69.01,67.713   c-1.95,0.339-1.843,3.094-0.192,3.408l13.413,0.15l-0.024,2.814l-13.402,0.038c-1.613,0.663-1.622,3.017-0.033,3.341l13.451,0.118   l-0.071,2.966L68.836,80.37c-1.654,0.155-1.283,2.895-0.019,3.14l13.323,0.112l-0.127,3.253l-13.069-0.339   c-1.796,0.146-1.631,2.956,0.014,3.46l20.558,2.626c1.823-0.089,3.102-1.377,3.84-3.867L92.96,11.011z" fill="#ffffff" style="fill: rgb(255, 255, 255);"></path></g></g></svg>