<svg xmlns="http://www.w3.org/2000/svg" version="1.1" xmlns:xlink="http://www.w3.org/1999/xlink" xmlns:svgjs="http://svgjs.com/svgjs" height="165.94140625" width="252.90234375"><defs id="SvgjsDefs8623"></defs><g id="SvgjsG8624" rel="mainfill" name="main_text" xmlns:name="main_text" transform="translate(-1.2890625,-74.8671875)" fill="#000000"><path d="M47.27 230.32Q47.27 233.95 48.28 236.17Q49.29 238.39 52.92 238.39L54.53 238.39L54.53 240L47.27 240Q45.18 240 43.76 239.64Q42.35 239.27 41.50 238.18Q40.66 237.10 40.34 235.24Q40.01 233.39 40.01 230.32L40.01 214.19L15.81 214.19L15.81 240L8.55 240L8.55 196.44Q8.55 192.81 7.54 190.59Q6.53 188.37 2.90 188.37L1.29 188.37L1.29 186.76L8.55 186.76Q10.65 186.76 12.06 187.12Q13.47 187.48 14.32 188.57Q15.17 189.66 15.49 191.56Q15.81 193.45 15.81 196.44L15.81 210.96L40.01 210.96L40.01 186.76L47.27 186.76L47.27 230.32ZM82.04 221.45L79.62 221.45Q73.57 221.45 70.14 223.66Q66.71 225.88 66.71 229.51Q66.71 231.45 67.36 232.90Q68.00 234.35 69.05 235.32Q70.10 236.29 71.47 236.73Q72.85 237.18 74.38 237.18Q77.36 237.18 79.10 235.68Q80.83 234.19 82.04 232.34L82.04 221.45M85.27 240L82.44 236.37L82.04 236.37Q80.83 237.90 78.09 239.35Q75.35 240.81 70.75 240.81Q69.05 240.81 67.04 240.28Q65.02 239.76 63.25 238.47Q61.47 237.18 60.26 235.00Q59.05 232.82 59.05 229.51Q59.05 226.21 60.74 224.03Q62.44 221.85 65.26 220.56Q68.09 219.27 71.80 218.74Q75.51 218.22 79.62 218.22L82.04 218.22Q82.04 214.02 81.40 211.32Q80.75 208.62 79.62 207.13Q78.49 205.63 76.92 205.07Q75.35 204.51 73.57 204.51Q70.18 204.51 67.88 205.96Q65.58 207.41 64.70 211.36L61.07 211.36Q61.07 209.26 61.31 207.45Q61.55 205.63 63.08 204.10Q63.81 203.38 65.14 202.81Q66.47 202.25 68.09 201.92Q69.70 201.60 71.51 201.44Q73.33 201.28 75.18 201.28Q77.93 201.28 80.47 201.88Q83.01 202.49 84.99 204.30Q86.96 206.12 88.13 209.47Q89.30 212.81 89.30 218.22L89.30 240L85.27 240ZM107.13 205.31Q103.50 205.31 101.08 207.37Q98.66 209.43 98.66 213.38L97.05 213.38L97.05 208.54Q97.05 207.33 97.33 206.16Q97.61 204.99 98.26 204.10Q98.90 203.21 100.07 202.65Q101.24 202.09 103.10 202.09L131.73 202.09L131.73 205.31L118.42 205.31L118.42 240L111.16 240L111.16 205.31L107.13 205.31ZM159.08 221.45L156.66 221.45Q150.61 221.45 147.18 223.66Q143.75 225.88 143.75 229.51Q143.75 231.45 144.40 232.90Q145.04 234.35 146.09 235.32Q147.14 236.29 148.51 236.73Q149.89 237.18 151.42 237.18Q154.40 237.18 156.14 235.68Q157.87 234.19 159.08 232.34L159.08 221.45M162.31 240L159.48 236.37L159.08 236.37Q157.87 237.90 155.13 239.35Q152.39 240.81 147.79 240.81Q146.09 240.81 144.08 240.28Q142.06 239.76 140.29 238.47Q138.51 237.18 137.30 235.00Q136.09 232.82 136.09 229.51Q136.09 226.21 137.78 224.03Q139.48 221.85 142.30 220.56Q145.13 219.27 148.84 218.74Q152.55 218.22 156.66 218.22L159.08 218.22Q159.08 214.02 158.44 211.32Q157.79 208.62 156.66 207.13Q155.53 205.63 153.96 205.07Q152.39 204.51 150.61 204.51Q147.22 204.51 144.92 205.96Q142.62 207.41 141.74 211.36L138.11 211.36Q138.11 209.26 138.35 207.45Q138.59 205.63 140.12 204.10Q140.85 203.38 142.18 202.81Q143.51 202.25 145.13 201.92Q146.74 201.60 148.55 201.44Q150.37 201.28 152.22 201.28Q154.97 201.28 157.51 201.88Q160.05 202.49 162.03 204.30Q164.00 206.12 165.17 209.47Q166.34 212.81 166.34 218.22L166.34 240L162.31 240ZM188.53 211.77Q188.53 220.88 187.48 226.53Q186.43 232.17 184.73 235.36Q183.04 238.55 180.86 239.68Q178.68 240.81 176.43 240.81Q175.78 240.81 174.45 240.56Q173.12 240.32 172.47 240.08L172.47 238.06Q174.41 238.06 176.30 237.06Q178.20 236.05 179.69 233.22Q181.19 230.40 182.07 225.24Q182.96 220.07 182.96 211.77Q182.96 209.99 182.76 208.50Q182.56 207.01 181.95 205.92Q181.35 204.83 180.22 204.26Q179.09 203.70 177.23 203.70L177.23 202.09L209.98 202.09L209.98 240L202.72 240L202.72 205.31L188.53 205.31L188.53 211.77ZM246.93 209.35L229.99 240L222.73 240L222.73 211.77Q222.73 208.14 221.72 205.92Q220.71 203.70 217.08 203.70L215.87 203.70L215.87 202.09L222.73 202.09Q224.83 202.09 226.24 202.45Q227.65 202.81 228.50 203.90Q229.35 204.99 229.67 206.88Q229.99 208.78 229.99 211.77L229.99 232.74L246.93 202.09L254.19 202.09L254.19 240L246.93 240L246.93 209.35Z" fill="#000000" style="fill: rgb(0, 0, 0);"></path></g><g id="SvgjsG8625" rel="mainfill" name="symbol" xmlns:name="symbol_mainfill" transform="translate(71.451171875,-6.552734375000008) scale(1.1)" fill="#1E1E20"><path d="M69.301,55.965c1.904-6.854-0.762-11.805-8.504-25.894c-7.743-14.089-8.203-23.228-8.203-23.228s-0.931,1.552,0.782,9.082  c-0.075-0.065-0.147-0.127-0.212-0.185c-0.579-0.512-1.226-0.948-1.917-1.294c-0.768-0.384-2.19-1.127-3.016-0.559  c-1.037,0.713,0.538,1.212,1.063,1.417c1.538,0.601,2.968,1.427,4.359,2.309c0.036,0.023,0.091,0.054,0.152,0.089  c1.115,4.431,3.026,10.591,6.262,19.143c0.039,0.104,0.079,0.21,0.119,0.314c-0.423,2.06-0.846,4.12-1.268,6.181  c-0.065,0.317-0.135,0.646-0.328,0.906c-0.303,0.407-0.862,0.562-1.365,0.494c-0.775-0.104-1.193-0.397-1.976-0.788  c-0.662-0.33-1.163,0.281-0.351,0.809c1.138,0.74,3.348,1.271,4.317-0.035c0.262-0.353,0.357-0.798,0.446-1.229  c0.343-1.668,0.686-3.337,1.029-5.005c1.125,2.999,2.215,6.11,2.748,9.28c-2.295,1.217-7.112,3.941-11.414,7.489  c-3.866,3.188-7.937,6.049-11.488,3.042c-3.67-3.107-5.957-8.166-7.544-12.276c0.243-0.808,0.659-1.723,1.144-2.777  c1.374-2.986,3.083-6.702,2.104-11.007c-0.099-0.437-0.463-0.75-0.906-0.781c-0.452-0.039-0.836,0.225-0.993,0.636  c-0.341,0.899-0.916,2.357-1.609,3.91c0.991-2.795,1.982-5.827,2.227-7.416c0.12-0.784,0.194-1.474,0.221-2.05  c0.024-0.494-0.281-0.915-0.76-1.048c-0.484-0.13-0.965,0.073-1.2,0.513c-0.101,0.188-0.208,0.389-0.315,0.591  c-0.142-0.231-0.357-0.413-0.637-0.498c-0.5-0.15-1.03,0.046-1.309,0.498c-4.361,7.143-11.709,19.576-11.911,22.606  c-0.161,2.422,3.598,7.214,7.232,11.848c2.179,2.777,4.432,5.649,4.644,6.689c0.049,0.237,0.257,0.4,0.489,0.4  c0.033,0,0.067-0.003,0.101-0.01c0.271-0.056,0.445-0.319,0.391-0.59c-0.248-1.211-1.999-3.49-4.837-7.107  c-3.189-4.065-7.157-9.125-7.021-11.164c0.083-1.251,1.794-4.888,4.787-10.267l-2.651,7.788c-0.089,0.262,0.051,0.546,0.313,0.635  c0.054,0.018,0.107,0.026,0.161,0.026c0.208,0,0.402-0.131,0.474-0.339l4.321-12.694c1.308-2.243,2.761-4.679,4.362-7.3  c0.038-0.063,0.098-0.084,0.164-0.063c0.071,0.021,0.106,0.07,0.103,0.146l-0.044,1.037c-1.943,3.691-4.351,8.428-4.907,10.254  c-0.882,2.896-2.401,8.847-2.417,8.906c-0.068,0.268,0.093,0.54,0.36,0.608c0.042,0.011,0.083,0.016,0.124,0.016  c0.224,0,0.427-0.15,0.484-0.376c0.016-0.06,1.53-5.988,2.405-8.863c0.677-2.224,4.433-9.346,6.097-12.289  c-0.025,0.542-0.097,1.196-0.211,1.944c-0.497,3.239-4.41,13.216-4.45,13.316c-0.004,0.009-0.002,0.019-0.005,0.028  c-0.002,0.007-0.009,0.013-0.011,0.021c-1.135,4.078-1.516,5.955-1.531,6.033c-0.055,0.271,0.121,0.534,0.392,0.589  c0.267,0.054,0.534-0.12,0.589-0.392c0.004-0.019,0.385-1.896,1.486-5.863c1.895-2.369,3.839-7.094,4.826-9.708  c0.903,3.975-0.728,7.52-2.038,10.368c-0.511,1.11-0.994,2.159-1.248,3.08c-1.142,4.125,0.255,8.102,4.67,13.296  c4.57,5.377,0.401,13.128,0.358,13.205c-0.133,0.242-0.044,0.546,0.197,0.679c0.077,0.043,0.159,0.063,0.241,0.063  c0.176,0,0.347-0.094,0.438-0.259c0.188-0.342,4.548-8.429-0.473-14.336c-4.264-5.016-5.058-8.223-4.789-10.749  c1.602,3.918,3.847,8.361,7.267,11.256c1.274,1.079,2.605,1.507,3.93,1.507c1.438,0,2.866-0.505,4.204-1.225  c-0.512,1.651-1.597,5.752-0.854,8.911c0.555,2.358,2.544,5.804,5.035,8.946c0.053,1.909,0.599,3.747,1.866,5.572  c1.704,2.454,4.441,2.807,5.863,2.811c3.821,4.97,1.54,8.454,1.54,8.454s1.609-0.508,1.736-3.681s-3.665-6.442-4.823-12.058  C56.535,69.334,67.107,63.864,69.301,55.965z M57.119,63.198c2.915-3.91,3.804-5.076,5.613-11.074  c0.376-1.248,0.676-2.148,0.919-2.806c0.07,0.659,0.115,1.321,0.125,1.984c0.07,5.039-2.337,9.01-5.083,13.055  c-2.226,3.277-3.509,6.551-3.171,10.546c0.081,0.957,0.234,1.937,0.451,2.911c-0.528-0.487-1.145-1.197-1.683-2.225  C54.437,73.979,52.814,68.974,57.119,63.198z M59.814,85.444c-0.889-0.167-2.234-0.625-3.651-1.904  c-1.006-0.908-1.546-2.293-1.793-3.82c1.18,1.253,2.406,2.374,3.603,3.247c0.387,0.641,0.811,1.255,1.3,1.811  C59.472,85.003,59.64,85.223,59.814,85.444z" fill="#1E1E20" style="fill: rgb(30, 30, 32);"></path><path d="M44.705,45.875c-1.588,0.006-2.799,0.303-2.799,0.303s0.324,3.314,0.578,4.583s3.11,3.617,5.299,4.125  c2.19,0.508,2.864-0.439,4.196-1.137c1.333-0.698,1.419-1.055,1.419-1.055s-0.062-2.631-0.633-3.837s-2.094-0.762-2.094-0.762  s-0.127-0.571-1.079-1.523S46.74,45.868,44.705,45.875z" fill="#1E1E20" style="fill: rgb(30, 30, 32);"></path><path d="M66.004,9.158c0,0,0.157-1.698-3.617-2.81s-5.045,0.494-5.045,0.494s0.278,11.901,7.675,25.116  c7.397,13.215,9.485,20.995,5.462,28.891c-7.989,15.677-1.714,23.001-1.714,23.001s-3.748-9.991,3.5-20.907  c3.529-5.314,7.816-13.957,0.657-26.205C65.017,23.215,66.004,9.158,66.004,9.158z" fill="#1E1E20" style="fill: rgb(30, 30, 32);"></path><path d="M69.368,9.888c0,0-1.437,7.141,0.848,14.122c2.285,6.981,2.638,8.029,5.149,12.755c3.491,6.569,3.412,10.758,3.412,10.758  s3.918-3.745,1.252-17.897C77.365,15.475,69.368,9.888,69.368,9.888z" fill="#1E1E20" style="fill: rgb(30, 30, 32);"></path><path d="M39.887,21.904c0,0,1.178-0.229,3.054-0.318c0.135-0.006,0.25-0.007,0.372-0.01c-1.028,0.466-1.895,0.88-1.895,0.88  s1.056,0.148,2.481-0.258c0.289-0.082,0.51-0.17,0.699-0.257c-0.163,0.181-0.424,0.383-0.852,0.575  c-1.189,0.533-2.287,1.057-2.287,1.057s0.938,0.125,2.234-0.197c-1.486,0.799-2.82,1.549-2.82,1.549s1.319,0.09,3.162-0.598  c0.66-0.246,1.095-0.495,1.39-0.714c0.007,0.012,0.012,0.024,0.019,0.036c-0.061,0.044-0.113,0.087-0.184,0.133  c-1.1,0.7-2.11,1.377-2.11,1.377s0.822-0.005,1.936-0.418c-0.099,0.06-0.188,0.123-0.304,0.18c-1.586,0.779-3.085,1.042-3.085,1.042  s1.397,0.391,3.263-0.232c0.186-0.062,0.352-0.113,0.515-0.163c-0.681,0.443-1.186,0.782-1.186,0.782s0.435-0.004,1.098-0.163  c-1.165,0.835-2.394,1.312-2.394,1.312s1.888-0.075,3.402-0.947c0.342-0.197,0.617-0.322,0.849-0.408  c-0.003,0.002-0.005,0.004-0.009,0.006c-0.676,0.43-1.298,0.847-1.298,0.847s0.24-0.003,0.61-0.085  c-0.961,0.628-1.802,1.259-1.802,1.259s1.18-0.365,2.578-0.987c0.309-0.138,0.541-0.269,0.728-0.393  c0.027,0.021,0.055,0.044,0.082,0.064c-0.074,0.068-0.16,0.138-0.275,0.211c-0.676,0.43-1.298,0.847-1.298,0.847  s0.656-0.004,1.487-0.378c0.256-0.115,0.426-0.224,0.548-0.323c-0.059,0.082-0.115,0.162-0.185,0.253  c-0.828,1.081-2.116,1.568-2.116,1.568s1.485-0.037,2.582-1.125c0.149-0.148,0.271-0.284,0.377-0.41  c0.043,0.018,0.085,0.038,0.128,0.055c-0.516,0.548-0.969,1.049-0.969,1.049s0.628-0.162,1.338-0.72  c-0.024,0.04-0.044,0.075-0.071,0.117c-0.598,0.939-1.627,1.431-1.627,1.431s1.231-0.143,2.051-1.107  c0.142-0.166,0.244-0.31,0.332-0.444c1.878,0.453,3.792,0.294,4.143,0.069c0.444-0.286,0.444-0.952,0.444-0.952  s-4.141,0.809-6.664-2.19s-2.856-6.41-2.856-6.41s-0.762-0.063-0.809,0.317c-0.008,0.064-0.029,0.169-0.053,0.291  c-0.181-0.036-0.41-0.087-0.702-0.163c-1.129-0.293-1.975-1.063-1.975-1.063s0.301,1.127,1.484,1.623  c0.029,0.012,0.052,0.018,0.08,0.03c-1.135-0.09-2.109-0.149-2.109-0.149s0.852,0.641,2.296,0.975  c0.053,0.012,0.095,0.017,0.145,0.027c-0.112,0.011-0.208,0.013-0.34,0.036C41.536,20.655,39.887,21.904,39.887,21.904z" fill="#1E1E20" style="fill: rgb(30, 30, 32);"></path><path d="M49.898,37.897l-0.702-0.294c-0.189,0.036-0.388,1.15-0.404,1.332c-0.043,0.485,0.05,0.979,0.231,1.429  c0.278,0.689,0.764,1.414,1.371,1.851c2.028,1.46,2.285,0.299,2.304,0.193l0.012,0.003c0.189-0.227-0.931-0.746-1.086-0.823  c-0.17-0.085-0.346-0.179-0.519-0.283c-0.657-0.394-1.413-1.013-1.471-1.848C49.626,39.311,49.733,37.828,49.898,37.897z" fill="#1E1E20" style="fill: rgb(30, 30, 32);"></path></g></svg>