<svg width="50" height="50" viewBox="0 0 50 50" fill="none" xmlns="http://www.w3.org/2000/svg">
<path d="M34.6527 32.5401C34.6502 32.5401 34.6472 32.5401 34.6447 32.5401C34.3841 32.5371 34.1439 32.3991 34.0104 32.1754L26.9065 20.2449C26.8866 20.2115 26.8696 20.1771 26.8552 20.1412C25.9693 18.6868 25.502 17.0202 25.502 15.3117C25.5109 10.1743 29.6942 6 34.829 6C34.833 6 34.8365 6 34.8405 6C37.3332 6.00349 39.6734 6.97706 41.4302 8.74085C43.186 10.5031 44.1506 12.8459 44.1471 15.3366C44.1471 17.0197 43.6818 18.6774 42.7999 20.1407C42.7829 20.1886 42.7605 20.2344 42.7331 20.2787L35.2869 32.1893C35.1494 32.407 34.9097 32.5401 34.6527 32.5401ZM28.2597 19.5956L34.6681 30.3583L41.3824 19.6186C41.3993 19.5727 41.4208 19.5279 41.4472 19.4855C42.2354 18.2265 42.6519 16.7915 42.6519 15.3361C42.6519 15.3356 42.6519 15.3356 42.6519 15.3351C42.6554 13.2425 41.8453 11.2754 40.371 9.79514C38.8962 8.31485 36.9311 7.49773 34.8385 7.49424C34.8355 7.49424 34.832 7.49424 34.8285 7.49424C30.5163 7.49424 27.0037 10.9994 26.9967 15.3127C26.9967 16.7845 27.4107 18.2205 28.1935 19.4641C28.2204 19.5055 28.2423 19.5498 28.2597 19.5956Z" fill="white"/>
<path d="M34.8316 18.8129C34.8291 18.8129 34.8266 18.8129 34.8236 18.8129C33.7713 18.8129 32.7803 18.4018 32.0355 17.6554C31.2896 16.9081 30.88 15.9156 30.882 14.8598C30.883 13.8075 31.2946 12.8175 32.0409 12.0731C32.7863 11.3302 33.7758 10.9211 34.8286 10.9211C34.8296 10.9211 34.8311 10.9211 34.8326 10.9211C37.0074 10.9236 38.7757 12.6964 38.7737 14.8732C38.7727 15.927 38.3611 16.9175 37.6148 17.6619C36.8699 18.4043 35.8819 18.8129 34.8316 18.8129ZM34.8281 12.4159C34.1744 12.4159 33.5591 12.67 33.0962 13.1319C32.6328 13.5937 32.3772 14.2086 32.3768 14.8623C32.3758 15.5185 32.6304 16.1353 33.0937 16.5997C33.5561 17.063 34.1714 17.3181 34.8251 17.3181C34.8266 17.3181 34.8281 17.3181 34.8301 17.3181C35.4838 17.3181 36.0971 17.0645 36.5595 16.6036C37.0228 16.1418 37.2784 15.5264 37.2789 14.8722C37.2799 13.52 36.1818 12.4179 34.8306 12.4164C34.8301 12.4159 34.8291 12.4159 34.8281 12.4159ZM38.0263 14.8727H38.0313H38.0263Z" fill="white"/>
<path d="M47.0335 43.1417H2.26251C2.0114 43.1417 1.77722 43.0156 1.63871 42.8059C1.5007 42.5966 1.47678 42.3316 1.57544 42.1004L9.71919 23.0464C9.83677 22.7714 10.1073 22.5925 10.4063 22.5925H29.6224C30.0355 22.5925 30.3698 22.9269 30.3698 23.3399C30.3698 23.7529 30.0355 24.0873 29.6224 24.0873H10.8995L3.39451 41.6465H45.901L38.6276 24.6314C38.4652 24.2517 38.6416 23.8127 39.0213 23.6503C39.3994 23.4884 39.8399 23.6638 40.0023 24.0439L47.7205 42.0999C47.8192 42.3311 47.7953 42.5961 47.6573 42.8054C47.5188 43.0156 47.2846 43.1417 47.0335 43.1417Z" fill="white"/>
<path d="M34.7408 43.0077C34.3662 43.0077 34.0428 42.7267 33.9995 42.3451C33.995 42.3082 33.5177 38.6312 28.3693 37.7577C27.8905 37.6765 27.1267 37.6023 26.2418 37.5171C21.3695 37.0457 16.9252 36.4339 16.0683 34.1554C15.5152 32.6856 16.3234 31.565 16.9721 30.6647C17.6826 29.6792 17.9167 29.2487 17.554 28.6304C17.3243 28.2387 16.5929 27.9199 15.8854 27.6114C14.5003 27.0076 12.603 26.1805 12.593 23.9135C12.591 23.5004 12.9244 23.1646 13.3369 23.1626C13.3379 23.1626 13.3394 23.1626 13.3404 23.1626C13.7519 23.1626 14.0858 23.4949 14.0878 23.9065C14.0932 25.1122 14.9965 25.593 16.4833 26.2413C17.41 26.6453 18.3681 27.0629 18.844 27.8745C19.7333 29.3912 18.8385 30.6328 18.1853 31.5391C17.5724 32.3891 17.2097 32.9447 17.4678 33.6293C18.0682 35.2251 23.6864 35.7682 26.3863 36.0298C27.2996 36.118 28.0883 36.1942 28.6195 36.2844C34.8634 37.3442 35.4623 41.9794 35.4847 42.1762C35.5316 42.5862 35.2371 42.9564 34.827 43.0033C34.7981 43.0063 34.7692 43.0077 34.7408 43.0077Z" fill="white"/>
</svg>
