<svg width="50" height="50" viewBox="0 0 50 50" fill="none" xmlns="http://www.w3.org/2000/svg">
<path d="M19.6875 42.6684C21.668 43.7775 23.6186 44.3346 25.4357 44.3346C26.9569 44.3341 28.3843 43.9434 29.6548 43.1592L34.3378 40.2704C34.5067 40.1662 34.6273 39.9998 34.6731 39.8065C34.719 39.6137 34.6856 39.4104 34.5814 39.2415L30.5223 32.6627C30.4181 32.4942 30.2512 32.3737 30.0584 32.3278C29.8641 32.2825 29.6618 32.3154 29.4934 32.4195L24.7751 35.3318C24.0496 35.7792 23.1189 35.9222 22.2236 35.7254C21.3282 35.5281 20.5639 35.0089 20.1265 34.2994L13.7136 23.9065C12.7864 22.4038 13.2537 20.4267 14.7554 19.4995C14.7554 19.4995 14.7559 19.4995 14.7559 19.499L19.6531 16.4756C20.0044 16.2589 20.113 15.7985 19.8963 15.4473L15.8366 8.8699C15.6199 8.51864 15.159 8.40853 14.8082 8.62626L9.91501 11.6466C4.46126 15.0128 4.65258 23.8492 10.3814 33.1355C13.0076 37.3935 16.3129 40.7791 19.6875 42.6684ZM10.7007 12.9182L14.9577 10.2909L18.2326 15.5962L13.9712 18.227C13.9702 18.2275 13.9697 18.228 13.9692 18.2285C11.768 19.5892 11.0824 22.4875 12.4421 24.6907L18.8549 35.0831C19.5032 36.1349 20.6142 36.9007 21.9027 37.1847C23.1737 37.4633 24.5075 37.2525 25.5603 36.6028L29.6424 34.0832L32.9168 39.3895L28.8696 41.8862C25.914 43.7098 22.6421 42.6086 20.4179 41.3635C17.2616 39.5957 14.1486 36.395 11.6534 32.3503C6.38696 23.8133 5.99534 15.8224 10.7007 12.9182Z" fill="white"/>
<path d="M24.7028 16.7171C27.1213 16.8601 29.2617 18.1027 30.5761 20.1271C31.8326 22.0563 32.1351 24.4205 31.4051 26.6138C31.2746 27.0054 31.4864 27.4289 31.878 27.5584C31.9562 27.5848 32.0354 27.5968 32.1141 27.5968C32.4275 27.5968 32.719 27.399 32.8231 27.0856C33.698 24.4578 33.3353 21.6238 31.8291 19.312C30.2776 16.9214 27.6459 15.3932 24.791 15.2243C24.375 15.2069 24.0252 15.5143 24.0008 15.9264C23.9764 16.3389 24.2908 16.6927 24.7028 16.7171Z" fill="white"/>
<path d="M25.7491 11.1697C29.6653 11.6196 33.1415 13.7686 35.2864 17.0645C37.3646 20.2597 37.9535 24.1939 36.9017 27.8585C36.7876 28.2556 37.0168 28.6691 37.4134 28.7827C37.4827 28.8026 37.5514 28.8121 37.6202 28.8121C37.9445 28.8121 38.244 28.5984 38.3377 28.271C39.509 24.1899 38.8533 19.8078 36.539 16.2493C34.1504 12.5787 30.2801 10.1862 25.9195 9.68493C25.5174 9.63759 25.1392 9.93206 25.0919 10.3421C25.0446 10.7522 25.3385 11.1224 25.7491 11.1697Z" fill="white"/>
<path d="M26.771 6.28385C31.9722 7.0068 36.5968 9.94645 39.4597 14.3495C42.2643 18.6578 43.1054 23.9791 41.7681 28.9486C41.6605 29.3472 41.8971 29.7572 42.2957 29.8643C42.3605 29.8818 42.4263 29.8903 42.4905 29.8903C42.8199 29.8903 43.1223 29.671 43.2115 29.3372C44.6594 23.9581 43.7486 18.1979 40.7128 13.5343C37.6137 8.7686 32.6074 5.5863 26.9778 4.80356C26.5707 4.74925 26.1911 5.03175 26.1348 5.44081C26.0775 5.84938 26.3625 6.22705 26.771 6.28385Z" fill="white"/>
</svg>
