<svg xmlns="http://www.w3.org/2000/svg" version="1.1" xmlns:xlink="http://www.w3.org/1999/xlink" xmlns:svgjs="http://svgjs.com/svgjs" height="138.27889251708984" width="252.739990234375"><defs id="SvgjsDefs8589"></defs><g id="SvgjsG8590" rel="mainfill" name="main_text" xmlns:name="main_text" transform="translate(-3.630000114440918,-102.45101165771484)" fill="#ffffff"><path d="M7.43 185.43C7.43 201.99 7.43 218.97 7.43 235.52L3.63 237.55L3.63 240C8.53 240 14.87 240 19.77 240L19.77 237.55L15.96 235.52C15.96 227.92 15.96 219.81 15.96 212.21L29.65 212.21C29.65 219.81 29.65 227.92 29.65 235.52L25.93 237.55L25.93 240C30.83 240 37.08 240 41.98 240L41.98 237.55L38.18 235.52C38.18 218.97 38.18 201.99 38.18 185.43L41.39 183.24L41.39 180.79L26.44 180.79L26.44 183.24L29.65 185.43C29.65 189.91 29.65 202.92 29.65 207.39L15.96 207.39L15.96 185.43L19.17 183.24L19.17 180.79L4.22 180.79L4.22 183.24L7.43 185.43ZM65.04 190.75L65.13 190.75L71.72 219.22L58.45 219.22ZM57.36 224.04L72.90 224.04L75.69 235.95L73.32 237.80L73.32 240L87.68 240L87.68 237.38L84.64 235.52L71.04 180.45L62.34 180.45C58.03 197.85 53.30 218.29 49.08 235.78L46.04 237.38L46.04 240L57.52 240L57.52 237.38L54.57 235.86ZM118.01 186.11L120.88 195.82L124.93 195.82L124.59 180.79L90.21 180.79L89.88 195.82L93.93 195.82L96.63 186.11L102.97 186.11C102.97 202.24 102.97 218.38 102.97 234.51L99.25 237.13L99.25 240C104.07 240 110.66 240 115.56 240L115.56 237.13L111.84 234.51C111.84 218.38 111.84 202.24 111.84 186.11ZM146.30 190.75L146.39 190.75L152.98 219.22L139.71 219.22ZM138.62 224.04L154.16 224.04L156.95 235.95L154.58 237.80L154.58 240L168.94 240L168.94 237.38L165.90 235.52L152.30 180.45L143.60 180.45C139.29 197.85 134.56 218.29 130.34 235.78L127.30 237.38L127.30 240L138.78 240L138.78 237.38L135.83 235.86ZM197.91 185.85L197.91 235.52L194.20 237.55L194.20 240L210.25 240L210.25 237.55L206.45 235.52L206.45 185.43L209.66 183.24L209.66 180.79L177.47 180.79L177.47 183.24L181.02 185.77L176.21 230.88C175.70 236.37 172.91 236.28 170.12 235.86L169.70 240C177.05 242.11 182.03 239.75 182.71 231.55L187.36 185.85ZM240.91 183.24L244.04 185.60L233.31 213.90L229.84 225.05C229.84 212.46 229.84 198.02 229.84 185.43L232.97 183.24L232.97 180.87L218.10 180.87L218.10 183.24L221.23 185.43C221.23 201.99 221.23 218.46 221.23 235.02L217.51 237.63L217.51 240C222.41 240 228.66 240 233.56 240L233.56 237.63L230.01 235.19L240.32 208.07L244.04 196.50C244.04 208.75 244.12 222.77 244.12 235.02L240.32 237.63L240.32 240C245.22 240 251.47 240 256.37 240L256.37 237.63L252.65 235.02C252.65 218.46 252.65 201.99 252.65 185.43L255.78 183.24L255.78 180.87L240.91 180.87Z" fill="#ffffff" style="fill: rgb(255, 255, 255);"></path></g><g id="SvgjsG8591" rel="mainfill" name="symbol" xmlns:name="symbol_mainfill" transform="translate(91.57212924957275,-3.6841200351715084) scale(0.7)" fill="#ffffff"><path fill="#ffffff" d="M72.798,11.102C59.87,2.427,51.342,5.973,42.609,6.018c-0.092,0.403-0.076,0.332-0.167,0.737  c3.368,1.606,12.69,4.255,14.123,12.369c-0.368-2.59-12.964-14.037-23.083-11.744C23.364,9.671,16.356,18.763,13.214,29.262  c-3.48,9.139-2.167,18.041,1.947,26.652c2.488,5.208,6.215,9.706,10.593,13.449c3.11,2.659,5.594,5.532,3.914,9.814  c3.859-1.835,7.445-8.547,6.744-12.268c-0.079-0.417-0.109-0.799-0.611-0.963c-1.691-0.555-1.764-2.034-2.061-3.419  c-0.306-1.423-0.089-3.311-1.725-3.92c-2.293-0.855-3.178-3.118-4.142-4.641c-1.593-2.519-2.998-4.06-6.151-3.471  c1.14-3.211,2.401-6.145,2.326-9.375c-0.019-0.828,0.341-1.931-1.035-2.187l0.028-0.042c-0.017-0.02-0.032-0.028-0.048-0.044  c0.006,0.028,0.013,0.055,0.019,0.083c-0.286,0.398-0.38-0.444-0.019-0.083c-0.437-1.955-1.021-3.893-1.271-5.87  c-0.817-6.483,1.229-11.995,6.295-17.043c0.058,2.057-0.333,3.485-0.138,4.975c0.715,5.439,3.879,9.662,7.019,13.87  c3.687,4.941,8.069,9.383,11.09,14.804c4.23,10.394-1.185,17.084-9.694,22.846c5.098-0.006,9.032-1.694,12.733-4.179  c-5.197,8.484-22.015,24.231-32.47,24.246c6.485,2.999,12.537,2.462,18.802,2.723c13.497,0.561,26.352-4.489,36.439-11.291  c6.649-4.485,15.498-17.383,16.27-31.364C88.84,38.582,86.875,20.55,72.798,11.102z" style="fill: rgb(255, 255, 255);"></path></g></svg>